<svg version="1.1" id="Layer_1" xmlns="http://www.w3.org/2000/svg" xmlns:xlink="http://www.w3.org/1999/xlink" x="0px" y="0px"
	 width="100%" viewBox="0 0 1050 1048" enable-background="new 0 0 1050 1048" xml:space="preserve">
<path fill="#000001" opacity="1.000000" stroke="none" 
	d="
M1051.000000,275.000000 
	C1051.000000,533.302673 1051.000000,791.105286 1051.000000,1048.953979 
	C701.072327,1048.953979 351.144714,1048.953979 1.108526,1048.953979 
	C1.108526,699.780640 1.108526,350.561218 1.108526,1.170898 
	C350.999939,1.170898 700.999939,1.170898 1051.000000,1.170898 
	C1051.000000,92.188774 1051.000000,183.344391 1051.000000,275.000000 
M669.241943,89.260651 
	C669.585693,89.250847 669.929443,89.241051 670.915344,89.347092 
	C671.113037,89.256470 671.310791,89.165848 671.497681,89.011299 
	C671.497681,89.011299 671.447571,89.052460 671.871704,89.890831 
	C672.752686,89.953247 673.633606,90.015663 674.446594,90.067841 
	C674.446594,90.067841 674.447754,90.136589 674.964050,90.778656 
	C675.732178,90.955421 676.500305,91.132195 677.569214,91.893776 
	C680.680847,92.976532 683.792542,94.059288 687.483826,95.554878 
	C699.911499,100.507805 712.339111,105.460732 725.093567,111.004944 
	C731.743164,113.655380 738.392822,116.305824 745.010437,119.512924 
	C745.651550,119.742744 746.292603,119.972572 746.933716,120.202393 
	C746.992004,119.912056 747.050293,119.621719 747.108582,119.331375 
	C746.394043,119.232376 745.679565,119.133377 744.972168,118.263184 
	C745.962219,118.016258 747.094971,117.337563 747.914062,117.608200 
	C749.898804,118.264015 751.737366,119.361954 754.419434,120.783279 
	C754.677368,120.955971 754.935303,121.128654 755.405518,121.771652 
	C757.269653,122.033203 759.133789,122.294762 761.677368,122.817627 
	C791.724487,139.756012 819.639465,159.661575 845.039734,183.019226 
	C853.099670,190.430969 860.867737,198.160034 868.987183,206.329102 
	C881.639343,221.562897 894.291504,236.796707 907.189514,252.669220 
	C911.081726,258.151154 914.973877,263.633087 918.961975,269.692383 
	C919.269470,270.166626 919.576965,270.640869 920.004150,271.810303 
	C922.791809,276.413208 925.579468,281.016113 928.644409,286.144958 
	C929.055542,286.812134 929.466614,287.479279 930.032654,288.800934 
	C930.724182,290.194580 931.415649,291.588257 932.168640,293.697723 
	C935.060852,298.574066 937.876465,303.498474 940.886902,308.300751 
	C941.945190,309.988953 943.365845,310.543610 944.857239,307.759033 
	C947.207947,312.699829 949.983582,317.486786 951.837280,322.607483 
	C960.904663,347.655396 969.676147,372.810272 978.682556,397.880554 
	C980.234619,402.200806 983.304260,406.123779 984.152954,410.523407 
	C987.947815,430.197937 991.192200,449.978577 994.399963,470.382843 
	C994.640991,471.251617 994.882019,472.120361 995.162537,473.874939 
	C995.338074,476.487976 995.513550,479.101013 995.389221,482.420776 
	C995.652100,483.608459 995.914978,484.796112 996.222717,486.906891 
	C996.419434,492.941772 996.616089,498.976654 996.420288,505.722748 
	C996.420288,511.414948 996.420288,517.107117 996.420288,522.799316 
	C996.948364,522.789917 997.476379,522.780518 998.004456,522.771118 
	C998.304260,516.825684 998.604004,510.880219 998.954834,504.006805 
	C999.643250,480.454681 997.552124,457.073761 993.365601,433.960327 
	C987.290955,400.422546 978.322632,367.592865 965.309021,336.058411 
	C959.476685,321.925812 955.556824,306.640564 944.411682,295.128845 
	C943.548523,294.237244 943.234741,292.779724 942.765930,291.547058 
	C941.650085,288.612427 940.915344,285.485687 939.464172,282.733093 
	C926.217346,257.607422 909.281982,235.000946 891.137939,213.302963 
	C871.650696,189.998672 850.464905,168.274796 826.199036,149.921234 
	C806.742432,135.205261 787.188599,120.427620 766.492676,107.587677 
	C739.344543,90.744644 709.784058,78.693230 679.306458,68.902077 
	C645.141113,57.926216 610.206238,51.097225 574.511536,47.944435 
	C545.402893,45.373375 516.238892,44.990726 487.190918,48.080036 
	C466.737183,50.255329 446.379852,53.548843 426.109070,57.085976 
	C420.953705,57.985550 415.816406,61.102734 411.593262,64.387100 
	C409.294586,66.174782 408.104553,69.069473 404.599884,70.006195 
	C361.033020,81.650696 321.012665,101.177437 283.012085,125.134262 
	C257.454895,141.246368 234.106277,160.230392 211.424164,180.088654 
	C210.085968,181.260239 208.462662,182.106155 206.972031,183.103622 
	C206.708817,182.758560 206.445587,182.413498 206.182373,182.068451 
	C207.104889,181.019714 207.928360,179.859406 208.964951,178.939178 
	C221.912552,167.445236 234.833755,155.920273 247.891769,144.552658 
	C252.657303,140.404053 257.538971,136.310791 262.774811,132.799347 
	C270.029083,127.934242 277.714111,123.716393 285.124359,119.077049 
	C289.621948,116.261230 293.681274,112.629509 298.400757,110.304909 
	C315.462433,101.901108 332.720306,93.895668 350.674957,85.857132 
	C363.709381,81.122704 376.777252,76.476395 389.740387,71.554291 
	C391.584503,70.854088 392.920227,68.815063 394.491211,67.395676 
	C394.079285,66.774651 393.667358,66.153618 393.255432,65.532585 
	C380.955597,70.071304 368.648499,74.590706 356.373840,79.196510 
	C355.633209,79.474426 355.243622,80.579720 354.528534,81.057137 
	C353.170258,81.963982 351.694489,82.694809 349.617462,83.166008 
	C347.104462,83.994469 344.591431,84.822929 341.505829,85.525558 
	C340.846588,85.935326 340.187347,86.345093 338.837982,86.846329 
	C333.730225,89.108711 328.622437,91.371094 323.054382,93.055344 
	C322.896973,92.865852 322.739563,92.676369 323.025818,91.955086 
	C328.521271,89.232536 333.960052,86.387970 339.520996,83.806503 
	C389.432739,60.636692 441.659637,46.396324 496.690948,42.619843 
	C534.876038,39.999420 572.912903,41.164516 610.661194,47.238964 
	C650.949890,53.722210 690.110535,64.585411 727.488159,81.189476 
	C751.911133,92.038757 776.231750,103.167305 798.655090,117.922363 
	C826.305908,136.117233 851.052063,157.769440 874.322815,181.219391 
	C877.877563,184.801559 882.430847,187.374802 886.370911,190.599716 
	C888.622681,192.442871 891.921692,194.403885 892.367737,196.762207 
	C893.270386,201.535339 893.502502,202.721756 897.626404,203.959808 
	C899.005371,204.373795 900.276306,205.674362 901.221619,206.866959 
	C902.310486,208.240601 902.750549,210.140656 903.875000,211.472031 
	C912.881409,222.135895 922.679932,232.207962 930.915222,243.430359 
	C949.869751,269.260254 964.420349,297.678162 977.477905,327.124023 
	C977.795654,327.409393 978.113464,327.694763 978.650940,328.682465 
	C979.100159,329.446533 979.549377,330.210602 980.071594,331.732971 
	C981.216248,334.884186 982.360840,338.035400 984.001709,342.552765 
	C984.815063,340.192230 985.067566,339.459381 985.718201,339.451294 
	C987.509949,344.092865 989.594360,348.645355 991.040039,353.392303 
	C995.914307,369.396423 1000.526917,385.480133 1005.349976,401.500153 
	C1005.825317,403.079010 1007.058655,404.429626 1008.715027,406.202515 
	C1011.437317,413.752045 1010.087219,422.458862 1014.601990,429.498993 
	C1015.189453,429.355774 1015.776978,429.212524 1016.364502,429.069305 
	C1013.852600,418.354401 1011.340637,407.639465 1008.735474,396.173370 
	C1005.791626,386.197632 1003.129761,376.127197 999.821167,366.273926 
	C996.773987,357.198975 992.522278,348.514618 989.703979,339.379669 
	C984.240051,321.669647 976.366333,305.076172 967.301575,289.041534 
	C956.839966,270.536041 946.646118,251.810867 934.998352,234.058792 
	C911.736633,198.606277 882.919373,167.948608 850.517151,140.671417 
	C827.433472,121.238853 802.565063,104.393890 776.469727,89.217964 
	C760.869202,80.145355 743.306458,74.663788 729.101196,63.094063 
	C728.362488,62.492432 727.301697,62.284424 726.388367,61.899261 
	C675.060242,40.254929 621.430908,28.780708 565.941833,25.284378 
	C509.302856,21.715591 453.621155,27.430418 399.057953,42.844994 
	C338.503662,59.952110 282.921448,87.457268 232.184143,124.698929 
	C208.650528,141.972839 186.830185,161.216721 166.025620,181.311661 
	C166.291473,180.350723 166.557327,179.389786 166.823181,178.428848 
	C166.521484,178.269623 166.219788,178.110397 165.918091,177.951172 
	C164.534470,179.688049 163.150833,181.424942 161.176575,183.569763 
	C158.853287,186.305969 156.529984,189.042191 153.648010,192.019760 
	C150.924911,195.315323 148.201813,198.610886 144.854660,202.015213 
	C142.283966,205.397675 139.713272,208.780136 136.761353,212.705185 
	C122.378532,233.854568 106.554932,254.181412 93.913040,276.324707 
	C67.656349,322.315491 48.490299,371.194336 40.473747,423.972137 
	C37.757011,441.858002 34.499249,459.661224 31.571539,477.515778 
	C30.629469,483.260986 29.952654,489.049713 29.154490,494.818512 
	C29.395233,494.865662 29.635977,494.912842 29.876720,494.959991 
	C30.627197,493.752808 31.377674,492.545624 32.128151,491.338440 
	C32.663177,497.275726 32.625721,502.941589 31.800552,508.490326 
	C28.814493,528.569458 27.742407,548.510132 34.294785,568.185913 
	C34.734924,569.507629 34.122932,571.142761 34.264168,572.606628 
	C35.501648,585.433228 36.799179,598.253967 38.033066,611.035034 
	C38.033066,611.035034 37.984791,610.996582 38.410851,611.612366 
	C38.750977,614.610413 38.706833,617.713562 39.492954,620.589661 
	C45.001274,640.742371 50.454433,660.915833 56.438961,680.929077 
	C58.323612,687.231750 60.846470,693.304626 64.152100,699.317688 
	C70.806656,711.422546 74.194366,725.294312 80.553955,737.597656 
	C88.762886,753.478577 99.116096,768.241760 107.540344,784.023132 
	C118.753960,805.029846 133.292465,823.527161 148.174271,841.900513 
	C179.948227,881.129517 216.337646,915.305176 258.474304,943.189270 
	C304.415588,973.590881 353.852325,996.250793 407.311554,1010.012451 
	C435.233490,1017.200195 463.566986,1021.854248 492.238403,1024.314575 
	C533.439514,1027.850220 574.477722,1025.453979 615.176819,1018.626770 
	C652.765381,1012.321289 689.250305,1001.802002 724.205383,986.448181 
	C735.264709,981.590454 745.923401,975.824158 756.799316,970.543213 
	C760.081604,968.949341 763.645386,967.882385 766.796082,966.077942 
	C801.209839,946.369568 834.457275,924.930786 863.090332,897.224854 
	C874.371399,886.309021 885.160706,874.729065 894.980103,862.493469 
	C911.575500,841.814331 927.398621,820.504272 943.171875,799.182373 
	C948.878845,791.467834 953.515381,782.960815 958.614136,774.799072 
	C958.832214,774.449890 958.786804,773.936218 958.955017,772.985352 
	C958.047668,773.416809 957.532654,773.722900 956.977417,773.908264 
	C956.428162,774.091614 955.838196,774.153259 954.020935,774.518555 
	C991.116272,697.000061 1013.175659,617.257446 1004.212219,531.319580 
	C1003.370239,531.910217 1003.222534,532.642822 1003.235901,533.372375 
	C1003.851257,566.953125 1000.525024,600.150085 994.236389,633.133911 
	C987.487305,668.532410 977.222046,702.786316 961.523621,735.236633 
	C955.749451,747.172424 948.030762,758.155762 942.010254,769.986328 
	C928.453857,796.625244 910.877014,820.377380 890.530762,842.038147 
	C876.870789,856.580505 862.073364,870.048218 847.987671,884.198547 
	C834.177917,898.071533 818.646790,909.696411 801.681946,919.721497 
	C801.480591,919.547119 801.279297,919.372803 801.490967,918.657654 
	C824.686462,901.893555 846.648560,883.769531 864.736877,861.342224 
	C863.229309,861.658081 862.125610,862.455505 861.158203,863.393494 
	C857.463501,866.976013 853.866272,870.660034 850.136536,874.205139 
	C829.717407,893.613159 808.020386,911.376709 783.482422,925.412659 
	C774.269165,930.682678 764.846130,935.586121 755.631531,940.854004 
	C746.756470,945.927795 738.187439,951.556946 729.175659,956.364197 
	C723.432617,959.427734 717.128296,961.438904 711.075623,963.921936 
	C710.876526,963.464661 710.677429,963.007446 710.478333,962.550232 
	C712.346741,961.417847 714.215149,960.285400 716.846802,959.073120 
	C723.968872,955.869202 731.090942,952.665222 738.212952,949.461304 
	C737.906555,948.781677 737.600159,948.102112 737.293762,947.422485 
	C730.200684,950.655823 723.107544,953.889221 715.292114,957.234009 
	C706.160217,960.730835 697.090393,964.401001 687.886108,967.695557 
	C639.044312,985.178040 588.969299,996.076294 536.800354,995.248596 
	C524.529663,995.053894 512.270020,994.167908 500.005249,993.599915 
	C500.027466,993.145752 500.049652,992.691528 500.071869,992.237366 
	C511.548309,992.237366 523.057434,992.793335 534.494385,992.121399 
	C558.203674,990.728394 581.906189,989.007507 605.542175,986.709106 
	C612.657837,986.017151 619.523621,982.894043 626.541016,981.023743 
	C640.464355,977.312805 654.517151,974.049255 668.329712,969.968811 
	C694.153076,962.340210 719.085510,952.387207 743.676208,939.812927 
	C765.122559,929.492004 785.097046,916.718933 804.480896,903.007568 
	C809.000793,899.810303 812.959656,895.819946 817.597839,892.137146 
	C817.597839,892.137146 818.006836,892.021179 818.697327,891.980957 
	C824.594177,887.033020 830.528015,882.127747 836.346130,877.088928 
	C837.173096,876.372742 837.438110,875.007751 838.403870,874.274353 
	C838.679993,874.025391 838.956177,873.776489 839.232361,873.527588 
	C839.137817,873.446533 838.985046,873.279114 838.957642,873.297607 
	C838.629761,873.518677 838.320435,873.767334 837.366760,874.223938 
	C830.890381,879.616760 824.414001,885.009583 817.423401,890.694031 
	C817.110535,890.928467 816.797668,891.162964 815.848022,891.759277 
	C814.248657,892.720520 812.649292,893.681763 811.049927,894.643066 
	C813.916931,887.590820 822.225525,885.648254 825.519897,877.639160 
	C816.198242,884.809570 807.866394,891.218506 798.904114,897.869324 
	C789.659302,903.758850 780.706055,910.180603 771.113953,915.436401 
	C744.318359,930.118530 718.457520,946.896667 687.765869,953.142700 
	C682.307007,954.253662 677.442139,958.050842 672.013550,959.581299 
	C636.145203,969.694031 599.829651,977.893066 562.556946,980.251953 
	C547.181335,981.225037 531.635925,980.072205 516.197510,979.294983 
	C506.114563,978.787415 496.083374,977.232178 486.032104,976.118164 
	C475.315369,974.930481 464.444214,974.490417 453.916992,972.358459 
	C421.407349,965.774536 390.450836,954.306274 360.139435,941.019897 
	C341.766479,932.966431 322.642242,926.235962 306.426361,914.085327 
	C284.605377,897.734924 262.927979,881.158691 241.779160,863.953979 
	C215.197067,842.329224 191.807907,817.481689 171.682892,789.722229 
	C145.457809,753.548645 125.743767,714.001221 111.321091,671.730286 
	C97.380386,630.872070 89.471268,588.854004 87.347977,545.825439 
	C84.985390,497.947845 90.683434,450.896423 103.378876,404.639221 
	C122.297394,335.707550 157.643677,275.832214 203.549484,221.722244 
	C204.403488,220.715607 206.306580,220.665924 207.376343,219.762558 
	C210.287811,217.304062 213.014557,214.626816 215.814514,212.036255 
	C213.250565,209.303757 215.786514,207.774689 217.309418,206.153046 
	C247.313797,174.203690 282.201538,148.599442 320.516876,127.633453 
	C348.103668,112.538071 376.995087,100.388756 407.167572,91.351555 
	C438.794800,81.878624 470.923553,75.338905 503.988861,73.716843 
	C512.481201,73.300240 521.119141,73.678871 528.895630,68.463722 
	C531.564209,66.674133 535.948853,67.261940 539.562988,67.127312 
	C541.991821,67.036842 544.444458,67.585373 547.760498,68.088013 
	C549.864502,68.028488 551.968445,67.968971 554.925476,67.948387 
	C558.759888,67.926682 562.639709,67.532516 566.415222,67.993385 
	C569.840393,68.411476 573.101868,70.068657 576.525574,70.626068 
	C581.431641,71.424828 586.442688,71.558655 591.368286,72.261055 
	C606.273438,74.386543 621.159058,76.649185 637.038269,79.004631 
	C635.343506,78.271477 634.580994,77.941589 632.720764,77.136826 
	C635.000732,75.791183 636.809021,73.856735 637.940063,74.193954 
	C646.771912,76.827118 655.473633,79.896744 664.202637,83.591988 
	C662.632690,83.658401 660.998718,84.036606 659.505249,83.730209 
	C655.694153,82.948349 651.945679,81.861092 648.172180,80.896019 
	C648.076355,81.352478 647.980591,81.808937 647.884766,82.265396 
	C654.918030,84.514793 661.951294,86.764198 668.998840,89.000748 
	C668.998840,89.000748 668.986755,89.013855 669.241943,89.260651 
M333.855347,716.234558 
	C332.120117,727.895996 330.287445,739.544128 328.699371,751.225586 
	C328.095886,755.664917 326.313171,761.231995 328.216248,764.384705 
	C330.396545,767.996704 335.963837,769.719299 340.253265,771.878113 
	C371.076538,787.391663 403.986359,795.843201 438.027100,800.219604 
	C467.759644,804.042114 497.400452,803.169861 526.946655,797.977600 
	C556.392578,792.802917 583.959778,782.751709 608.419067,765.464355 
	C645.268127,739.420288 666.607544,704.034119 671.175781,658.742188 
	C675.258179,618.266968 664.482849,582.179810 639.883850,550.134949 
	C621.719543,526.472595 598.895386,507.613678 575.680420,489.203644 
	C557.857544,475.069763 539.506958,461.512421 522.547729,446.400604 
	C500.289062,426.566681 483.253845,403.021698 479.450562,372.256378 
	C477.502167,356.495483 477.756195,340.791260 483.632874,325.664581 
	C492.194031,303.627960 509.011047,289.948059 529.967468,280.937866 
	C551.005920,271.892395 572.981384,270.937073 595.493164,274.283447 
	C622.347778,278.275330 640.277588,293.075653 651.521912,317.331116 
	C660.113281,335.863708 664.056763,355.698853 669.098267,375.248169 
	C671.151550,383.210236 673.071045,391.206787 675.061279,399.227570 
	C681.383667,399.227570 687.060608,398.932678 692.689880,399.323639 
	C696.965820,399.620636 698.330872,397.616150 698.619324,393.945374 
	C698.710266,392.787354 698.860046,391.628510 699.070251,390.486115 
	C705.189575,357.227325 711.255737,323.958405 717.549683,290.732635 
	C718.165405,287.482208 717.425842,285.896729 714.667480,284.481140 
	C704.643494,279.336823 695.013977,273.276276 684.650513,268.969238 
	C655.810974,256.983673 625.581177,250.619385 594.443726,248.296127 
	C559.017517,245.652878 524.473022,249.497284 491.119476,262.028259 
	C457.372894,274.706879 429.517822,295.180359 410.054321,325.872833 
	C393.720764,351.629700 387.453491,380.171387 389.115814,410.485748 
	C390.411987,434.122833 395.677399,456.762543 407.419952,477.540771 
	C424.413025,507.609802 448.846436,530.927856 475.591980,552.115540 
	C496.280823,568.505127 517.657166,584.119629 537.427734,601.553101 
	C565.239624,626.077209 580.669434,656.729370 577.241882,694.944458 
	C574.019897,730.867004 555.348450,755.809265 522.584656,770.116272 
	C502.745483,778.779541 481.633850,779.570190 460.470673,777.438660 
	C448.454132,776.228394 436.587952,773.560120 425.909882,767.416809 
	C405.273712,755.544434 395.201721,735.946960 387.973755,714.508484 
	C380.687775,692.897949 373.883148,671.125305 366.734924,649.467529 
	C366.384857,648.406921 364.785980,647.079651 363.727875,647.042725 
	C357.275330,646.817627 350.811005,646.930237 344.266418,646.930237 
	C343.270203,653.498108 342.336761,659.553284 341.435486,665.613220 
	C338.968842,682.198303 336.515717,698.785339 333.855347,716.234558 
M396.837128,68.669785 
	C396.913605,68.671127 396.990112,68.672470 396.837128,68.669785 
z"/>
<path fill="#5082F2" opacity="1.000000" stroke="none" 
	d="
M716.083557,959.152954 
	C714.215149,960.285400 712.346741,961.417847 710.478333,962.550232 
	C710.677429,963.007446 710.876526,963.464661 711.075623,963.921936 
	C717.128296,961.438904 723.432617,959.427734 729.175659,956.364197 
	C738.187439,951.556946 746.756470,945.927795 755.631531,940.854004 
	C764.846130,935.586121 774.269165,930.682678 783.482422,925.412659 
	C808.020386,911.376709 829.717407,893.613159 850.136536,874.205139 
	C853.866272,870.660034 857.463501,866.976013 861.158203,863.393494 
	C862.125610,862.455505 863.229309,861.658081 864.736877,861.342224 
	C846.648560,883.769531 824.686462,901.893555 800.992676,919.016663 
	C799.313538,920.222412 798.132690,921.069153 796.607910,921.976318 
	C789.913208,926.151489 783.562317,930.266235 777.211487,934.380981 
	C777.506775,934.844788 777.802002,935.308655 778.097290,935.772461 
	C784.419373,931.727966 790.741516,927.683533 797.393433,923.506470 
	C799.236084,922.339661 800.748962,921.305420 802.261841,920.271118 
	C818.646790,909.696411 834.177917,898.071533 847.987671,884.198547 
	C862.073364,870.048218 876.870789,856.580505 890.530762,842.038147 
	C910.877014,820.377380 928.453857,796.625244 942.010254,769.986328 
	C948.030762,758.155762 955.749451,747.172424 961.523621,735.236633 
	C977.222046,702.786316 987.487305,668.532410 994.236389,633.133911 
	C1000.525024,600.150085 1003.851257,566.953125 1003.235901,533.372375 
	C1003.222534,532.642822 1003.370239,531.910217 1004.212219,531.319580 
	C1013.175659,617.257446 991.116272,697.000061 954.020935,774.518555 
	C955.838196,774.153259 956.428162,774.091614 956.977417,773.908264 
	C957.532654,773.722900 958.047668,773.416809 958.955017,772.985352 
	C958.786804,773.936218 958.832214,774.449890 958.614136,774.799072 
	C953.515381,782.960815 948.878845,791.467834 943.171875,799.182373 
	C927.398621,820.504272 911.575500,841.814331 894.980103,862.493469 
	C885.160706,874.729065 874.371399,886.309021 863.090332,897.224854 
	C834.457275,924.930786 801.209839,946.369568 766.796082,966.077942 
	C763.645386,967.882385 760.081604,968.949341 756.799316,970.543213 
	C745.923401,975.824158 735.264709,981.590454 724.205383,986.448181 
	C689.250305,1001.802002 652.765381,1012.321289 615.176819,1018.626770 
	C574.477722,1025.453979 533.439514,1027.850220 492.238403,1024.314575 
	C463.566986,1021.854248 435.233490,1017.200195 407.311554,1010.012451 
	C353.852325,996.250793 304.415588,973.590881 258.474304,943.189270 
	C216.337646,915.305176 179.948227,881.129517 148.174271,841.900513 
	C133.292465,823.527161 118.753960,805.029846 107.540344,784.023132 
	C99.116096,768.241760 88.762886,753.478577 80.553955,737.597656 
	C74.194366,725.294312 70.806656,711.422546 64.152100,699.317688 
	C60.846470,693.304626 58.323612,687.231750 56.438961,680.929077 
	C50.454433,660.915833 45.001274,640.742371 39.492954,620.589661 
	C38.706833,617.713562 38.750977,614.610413 38.531502,611.230469 
	C38.652149,610.121582 38.652149,609.394653 38.652149,608.667725 
	C38.461067,608.673523 38.269985,608.679321 38.078903,608.685120 
	C38.078903,609.482239 38.078903,610.279358 38.078903,611.076477 
	C36.799179,598.253967 35.501648,585.433228 34.264168,572.606628 
	C34.122932,571.142761 34.734924,569.507629 34.294785,568.185913 
	C27.742407,548.510132 28.814493,528.569458 31.800552,508.490326 
	C32.625721,502.941589 32.663177,497.275726 32.128151,491.338440 
	C31.377674,492.545624 30.627197,493.752808 29.876720,494.959991 
	C29.635977,494.912842 29.395233,494.865662 29.154490,494.818512 
	C29.952654,489.049713 30.629469,483.260986 31.571539,477.515778 
	C34.499249,459.661224 37.757011,441.858002 40.473747,423.972137 
	C48.490299,371.194336 67.656349,322.315491 93.913040,276.324707 
	C106.554932,254.181412 122.378532,233.854568 137.212433,212.581161 
	C138.446014,212.513596 139.649170,212.923447 139.945160,212.571152 
	C142.541824,209.480469 144.976730,206.253876 147.772369,202.983459 
	C150.760559,199.961517 153.466003,197.048843 156.014938,194.005142 
	C156.131836,193.865555 154.841568,192.547546 154.206696,191.778397 
	C156.529984,189.042191 158.853287,186.305969 161.520447,183.672195 
	C164.853500,187.263474 164.496017,181.469101 166.461182,182.117416 
	C186.830185,161.216721 208.650528,141.972839 232.184143,124.698929 
	C282.921448,87.457268 338.503662,59.952110 399.057953,42.844994 
	C453.621155,27.430418 509.302856,21.715591 565.941833,25.284378 
	C621.430908,28.780708 675.060242,40.254929 726.388367,61.899261 
	C727.301697,62.284424 728.362488,62.492432 729.101196,63.094063 
	C743.306458,74.663788 760.869202,80.145355 776.469727,89.217964 
	C802.565063,104.393890 827.433472,121.238853 850.517151,140.671417 
	C882.919373,167.948608 911.736633,198.606277 934.998352,234.058792 
	C946.646118,251.810867 956.839966,270.536041 967.301575,289.041534 
	C976.366333,305.076172 984.240051,321.669647 989.703979,339.379669 
	C992.522278,348.514618 996.773987,357.198975 999.821167,366.273926 
	C1003.129761,376.127197 1005.791626,386.197632 1008.463745,396.690247 
	C1008.108093,400.100128 1008.024170,402.993134 1007.940186,405.886169 
	C1007.058655,404.429626 1005.825317,403.079010 1005.349976,401.500153 
	C1000.526917,385.480133 995.914307,369.396423 991.040039,353.392303 
	C989.594360,348.645355 987.509949,344.092865 985.579346,338.779266 
	C983.074463,332.643402 980.708435,327.179535 978.251831,321.442322 
	C977.912109,320.893402 977.663086,320.617859 977.414062,320.342346 
	C977.562195,320.934174 977.710266,321.526031 977.878296,322.709534 
	C977.805298,324.466339 977.712402,325.631531 977.619507,326.796692 
	C964.420349,297.678162 949.869751,269.260254 930.915222,243.430359 
	C922.679932,232.207962 912.881409,222.135895 903.875000,211.472031 
	C902.750549,210.140656 902.310486,208.240601 901.221619,206.866959 
	C900.276306,205.674362 899.005371,204.373795 897.626404,203.959808 
	C893.502502,202.721756 893.270386,201.535339 892.367737,196.762207 
	C891.921692,194.403885 888.622681,192.442871 886.370911,190.599716 
	C882.430847,187.374802 877.877563,184.801559 874.322815,181.219391 
	C851.052063,157.769440 826.305908,136.117233 798.655090,117.922363 
	C776.231750,103.167305 751.911133,92.038757 727.488159,81.189476 
	C690.110535,64.585411 650.949890,53.722210 610.661194,47.238964 
	C572.912903,41.164516 534.876038,39.999420 496.690948,42.619843 
	C441.659637,46.396324 389.432739,60.636692 339.520996,83.806503 
	C333.960052,86.387970 328.521271,89.232536 322.487396,92.280685 
	C320.826416,93.230560 319.703857,93.854828 318.307617,94.543640 
	C317.707184,94.790657 317.380402,94.973129 316.713196,95.228043 
	C312.919556,97.209236 309.466339,99.117973 305.674194,101.108353 
	C302.165894,103.151566 298.996552,105.113136 295.827179,107.074707 
	C296.064331,107.472366 296.301514,107.870033 296.538666,108.267700 
	C299.754791,106.467903 302.970947,104.668106 306.512573,102.673843 
	C310.225250,100.651871 313.612427,98.824364 317.284058,96.897568 
	C318.205841,96.351082 318.843231,95.903885 319.803650,95.437332 
	C321.256042,94.823151 322.385345,94.228317 323.514679,93.633476 
	C328.622437,91.371094 333.730225,89.108711 339.487701,86.864586 
	C340.784424,86.472359 341.431427,86.061874 342.078430,85.651382 
	C344.591431,84.822929 347.104462,83.994469 349.834076,83.698029 
	C350.001831,84.733307 349.952972,85.236572 349.904114,85.739838 
	C332.720306,93.895668 315.462433,101.901108 298.400757,110.304909 
	C293.681274,112.629509 289.621948,116.261230 285.124359,119.077049 
	C277.714111,123.716393 270.029083,127.934242 262.774811,132.799347 
	C257.538971,136.310791 252.657303,140.404053 247.891769,144.552658 
	C234.833755,155.920273 221.912552,167.445236 208.964951,178.939178 
	C207.928360,179.859406 207.104889,181.019714 206.182373,182.068451 
	C206.445587,182.413498 206.708817,182.758560 206.972031,183.103622 
	C208.462662,182.106155 210.085968,181.260239 211.424164,180.088654 
	C234.106277,160.230392 257.454895,141.246368 283.012085,125.134262 
	C321.012665,101.177437 361.033020,81.650696 404.599884,70.006195 
	C408.104553,69.069473 409.294586,66.174782 411.593262,64.387100 
	C415.816406,61.102734 420.953705,57.985550 426.109070,57.085976 
	C446.379852,53.548843 466.737183,50.255329 487.190918,48.080036 
	C516.238892,44.990726 545.402893,45.373375 574.511536,47.944435 
	C610.206238,51.097225 645.141113,57.926216 679.306458,68.902077 
	C709.784058,78.693230 739.344543,90.744644 766.492676,107.587677 
	C787.188599,120.427620 806.742432,135.205261 826.199036,149.921234 
	C850.464905,168.274796 871.650696,189.998672 891.137939,213.302963 
	C909.281982,235.000946 926.217346,257.607422 939.464172,282.733093 
	C940.915344,285.485687 941.650085,288.612427 942.765930,291.547058 
	C943.234741,292.779724 943.548523,294.237244 944.411682,295.128845 
	C955.556824,306.640564 959.476685,321.925812 965.309021,336.058411 
	C978.322632,367.592865 987.290955,400.422546 993.365601,433.960327 
	C997.552124,457.073761 999.643250,480.454681 998.584595,504.535919 
	C997.747192,505.047211 997.280029,505.029388 996.812744,505.011536 
	C996.616089,498.976654 996.419434,492.941772 996.379150,486.203979 
	C996.253479,484.238739 995.971252,482.976410 995.689087,481.714050 
	C995.513550,479.101013 995.338074,476.487976 995.308472,473.217072 
	C995.181335,471.613098 994.908386,470.666992 994.635376,469.720886 
	C991.192200,449.978577 987.947815,430.197937 984.152954,410.523407 
	C983.304260,406.123779 980.234619,402.200806 978.682556,397.880554 
	C969.676147,372.810272 960.904663,347.655396 951.837280,322.607483 
	C949.983582,317.486786 947.207947,312.699829 944.443848,307.847961 
	C944.030518,307.936890 944.098450,308.003326 944.405151,307.728455 
	C944.162537,306.613983 943.613281,305.774384 943.039551,304.963196 
	C943.015076,304.991608 943.088745,304.977417 943.153076,304.628235 
	C942.510010,303.175812 941.802551,302.072571 941.090454,300.947327 
	C941.085815,300.925323 941.044250,300.908173 941.142944,300.555389 
	C939.852478,297.374329 938.463318,294.546051 937.088074,291.377899 
	C935.855957,289.036499 934.609924,287.035004 933.277100,284.670227 
	C927.637390,275.736481 922.259338,267.045288 916.460999,258.644196 
	C913.357422,254.147598 909.529602,250.150879 906.018921,245.959930 
	C906.009094,245.991272 906.074341,245.984177 906.170654,245.608002 
	C905.846375,245.129349 905.425842,245.026855 905.003174,244.961914 
	C905.001160,244.999466 905.076355,245.003021 905.317383,244.688889 
	C904.707458,243.558060 903.856628,242.741379 903.005188,241.957092 
	C903.004578,241.989502 903.062683,241.960648 903.226807,241.621368 
	C901.943604,239.835495 900.496338,238.388916 899.025757,236.970001 
	C899.002441,236.997635 899.065186,236.961533 899.268066,236.636536 
	C898.327026,235.188385 897.183167,234.065247 896.021423,232.969513 
	C896.003540,232.996918 896.062988,232.969406 896.182983,232.624237 
	C894.879761,230.832718 893.456543,229.386368 892.017883,227.967865 
	C892.002502,227.995697 892.060852,227.970276 892.112671,227.622360 
	C891.780273,227.161087 891.396118,227.047714 891.005859,226.967010 
	C890.999878,226.999680 891.066284,227.001938 891.223022,226.661407 
	C890.267151,225.195297 889.154602,224.069702 888.021606,222.970566 
	C888.001221,222.997025 888.058289,222.962479 888.117126,222.619858 
	C887.795837,222.164764 887.415771,222.052292 887.019287,221.968399 
	C887.002869,221.996979 887.060364,221.964645 887.155884,221.612595 
	C886.844727,221.153137 886.438110,221.045715 886.018921,220.967255 
	C886.006287,220.996216 886.066406,220.976852 886.236328,220.642944 
	C884.950134,218.853470 883.494019,217.397903 882.019836,215.969269 
	C882.001831,215.996216 882.059326,215.966370 882.102539,215.635757 
	C881.774353,215.183228 881.402893,215.061295 881.017517,214.967896 
	C881.003540,214.996399 881.060791,214.968765 881.127136,214.613892 
	C880.808105,214.152451 880.422729,214.045898 880.019897,213.968155 
	C880.002502,213.996979 880.060608,213.962723 880.180725,213.600708 
	C879.879639,213.138916 879.458374,213.039108 879.022217,212.968414 
	C879.007324,212.997543 879.066956,212.970688 879.267944,212.647064 
	C877.327637,210.197021 875.186279,208.070618 873.026672,205.970703 
	C873.008423,205.997208 873.072449,205.990646 873.111206,205.651855 
	C872.770264,205.184586 872.390442,205.056122 872.007996,204.961182 
	C872.005310,204.994720 872.072327,204.989044 872.137329,204.626648 
	C871.810608,204.152756 871.418823,204.041245 871.017578,203.960876 
	C871.007996,203.992035 871.070312,203.972855 871.192749,203.602997 
	C870.886414,203.132080 870.457520,203.031036 870.020874,202.962860 
	C870.013062,202.995728 870.070007,202.959305 870.322876,202.747711 
	C870.327637,202.186478 870.079468,201.836838 869.636719,201.202484 
	C864.698242,196.154495 859.954285,191.391235 855.210388,186.627975 
	C854.685913,187.156326 854.161438,187.684677 853.636902,188.213028 
	C858.631897,192.914642 863.626831,197.616241 868.685913,202.544403 
	C868.750000,202.770966 868.931946,203.205338 868.917480,203.629181 
	C868.858521,204.616638 868.813904,205.180252 868.769348,205.743881 
	C860.867737,198.160034 853.099670,190.430969 845.039734,183.019226 
	C819.639465,159.661575 791.724487,139.756012 761.174072,122.399796 
	C759.303162,121.151566 757.962402,120.264969 756.525330,119.580231 
	C756.386292,119.513962 755.651489,120.697807 755.193298,121.301338 
	C754.935303,121.128654 754.677368,120.955971 754.116028,120.162994 
	C749.134338,116.866570 744.459778,114.183586 739.749756,111.564507 
	C739.657410,111.513191 739.148010,112.212013 738.477905,112.610260 
	C737.414429,112.587746 736.706177,112.515823 735.785767,112.176117 
	C731.994995,111.238968 728.880737,107.212151 724.766785,110.413651 
	C712.339111,105.460732 699.911499,100.507805 687.169800,94.963470 
	C684.237610,92.314751 681.619568,90.257446 678.643250,87.918617 
	C678.643555,87.918427 679.324707,87.489006 680.306885,87.039474 
	C680.909851,86.796310 681.211853,86.573242 681.513794,86.350174 
	C681.022095,86.069206 680.530457,85.788231 679.911377,85.355225 
	C679.565857,85.032539 679.318420,84.953415 678.719604,84.849213 
	C673.670227,84.098946 668.942871,83.465279 664.215576,82.831612 
	C655.473633,79.896744 646.771912,76.827118 637.940063,74.193954 
	C636.809021,73.856735 635.000732,75.791183 632.720764,77.136826 
	C634.580994,77.941589 635.343506,78.271477 637.038269,79.004631 
	C621.159058,76.649185 606.273438,74.386543 591.368286,72.261055 
	C586.442688,71.558655 581.431641,71.424828 576.525574,70.626068 
	C573.101868,70.068657 569.840393,68.411476 566.415222,67.993385 
	C562.639709,67.532516 558.759888,67.926682 554.530640,67.525955 
	C555.323059,66.734230 556.534973,65.980690 557.693787,66.055107 
	C569.272583,66.798714 580.841736,67.691315 592.415466,68.515961 
	C600.767578,69.111069 609.122375,69.666924 617.476013,70.240288 
	C617.514526,69.778854 617.553101,69.317421 617.591614,68.855988 
	C615.402588,68.634773 613.185608,68.562744 611.030823,68.158669 
	C607.469910,67.490875 603.978760,66.324493 600.397400,65.951263 
	C598.876282,65.792732 597.133362,67.796150 595.607483,67.644791 
	C581.922424,66.287262 568.266357,64.640366 554.594177,63.148003 
	C551.525879,62.813087 548.427856,62.750011 544.867493,62.532738 
	C545.766357,64.899231 546.326416,66.373627 546.886414,67.848015 
	C544.444458,67.585373 541.991821,67.036842 539.562988,67.127312 
	C535.948853,67.261940 531.564209,66.674133 528.895630,68.463722 
	C521.119141,73.678871 512.481201,73.300240 503.988861,73.716843 
	C470.923553,75.338905 438.794800,81.878624 407.167572,91.351555 
	C376.995087,100.388756 348.103668,112.538071 320.516876,127.633453 
	C282.201538,148.599442 247.313797,174.203690 217.309418,206.153046 
	C215.786514,207.774689 213.250565,209.303757 215.814514,212.036255 
	C213.014557,214.626816 210.287811,217.304062 207.376343,219.762558 
	C206.306580,220.665924 204.403488,220.715607 203.549484,221.722244 
	C157.643677,275.832214 122.297394,335.707550 103.378876,404.639221 
	C90.683434,450.896423 84.985390,497.947845 87.347977,545.825439 
	C89.471268,588.854004 97.380386,630.872070 111.321091,671.730286 
	C125.743767,714.001221 145.457809,753.548645 171.682892,789.722229 
	C191.807907,817.481689 215.197067,842.329224 241.779160,863.953979 
	C262.927979,881.158691 284.605377,897.734924 306.426361,914.085327 
	C322.642242,926.235962 341.766479,932.966431 360.139435,941.019897 
	C390.450836,954.306274 421.407349,965.774536 453.916992,972.358459 
	C464.444214,974.490417 475.315369,974.930481 486.032104,976.118164 
	C496.083374,977.232178 506.114563,978.787415 516.197510,979.294983 
	C531.635925,980.072205 547.181335,981.225037 562.556946,980.251953 
	C599.829651,977.893066 636.145203,969.694031 672.013550,959.581299 
	C677.442139,958.050842 682.307007,954.253662 687.765869,953.142700 
	C718.457520,946.896667 744.318359,930.118530 771.113953,915.436401 
	C780.706055,910.180603 789.659302,903.758850 799.512207,897.948364 
	C800.428040,898.380066 800.735718,898.732727 800.844177,899.348511 
	C798.751099,901.378723 796.857239,903.145752 794.956177,904.926453 
	C794.948914,904.940125 794.919678,904.950134 794.582764,904.782959 
	C781.484192,912.718262 768.722595,920.820740 755.967285,928.945679 
	C755.973633,928.968079 755.931458,928.948181 755.525146,928.923706 
	C754.715271,929.586670 754.311646,930.274048 753.941956,930.970825 
	C753.975830,930.980164 753.977600,930.909912 753.539795,930.642578 
	C752.872620,930.918823 752.643188,931.462341 752.466125,932.019043 
	C752.518494,932.032227 752.549194,931.928711 752.230652,931.544189 
	C751.246216,931.768860 750.580322,932.378113 749.957520,932.994019 
	C750.000549,933.000732 750.014526,932.914673 749.683838,932.724854 
	C748.866028,932.675903 748.378967,932.816833 747.539307,932.984314 
	C745.005432,934.099182 742.824097,935.187561 740.994568,936.100342 
	C741.738892,937.527588 742.349731,938.699036 742.960632,939.870422 
	C719.085510,952.387207 694.153076,962.340210 668.329712,969.968811 
	C654.517151,974.049255 640.464355,977.312805 626.541016,981.023743 
	C619.523621,982.894043 612.657837,986.017151 605.542175,986.709106 
	C581.906189,989.007507 558.203674,990.728394 534.494385,992.121399 
	C523.057434,992.793335 511.548309,992.237366 500.071869,992.237366 
	C500.049652,992.691528 500.027466,993.145752 500.005249,993.599915 
	C512.270020,994.167908 524.529663,995.053894 536.800354,995.248596 
	C588.969299,996.076294 639.044312,985.178040 687.886108,967.695557 
	C697.090393,964.401001 706.160217,960.730835 715.654053,957.517151 
	C716.038513,958.251221 716.061035,958.702087 716.083557,959.152954 
M180.456497,207.957672 
	C180.232422,208.232117 180.008331,208.506561 179.195602,209.009552 
	C178.532883,209.820190 177.870163,210.630829 176.885330,211.688751 
	C176.686813,211.882141 176.539459,212.108795 175.935486,212.794540 
	C174.421310,214.673782 172.907150,216.553024 170.847733,218.797867 
	C168.797546,221.411896 166.747360,224.025940 164.124756,226.984253 
	C153.917297,241.075806 143.709839,255.167358 133.502380,269.258911 
	C134.255066,269.797791 135.007751,270.336670 135.760452,270.875519 
	C145.740387,256.419922 155.720322,241.964325 166.222656,227.149323 
	C168.222519,224.501343 170.222366,221.853363 172.787048,218.876862 
	C174.267929,216.995239 175.748810,215.113632 177.702103,213.050720 
	C177.860748,212.760880 178.019394,212.471024 178.708710,211.887009 
	C179.266312,211.055969 179.823914,210.224930 180.834656,209.053391 
	C180.889236,208.701797 180.943802,208.350189 181.548492,207.949936 
	C181.713547,207.635315 181.878601,207.320709 182.558075,206.959335 
	C182.762390,206.693481 182.966705,206.427628 183.620285,205.963028 
	C183.896866,205.757034 184.069687,205.485077 184.595001,204.935989 
	C184.758682,204.649490 184.922379,204.362991 185.542068,203.898163 
	C185.825378,203.706619 186.013641,203.446335 186.618240,202.890594 
	C186.946823,202.441864 187.275406,201.993134 187.989090,201.268677 
	C188.249237,201.072876 188.466309,200.837357 189.036697,200.286530 
	C189.298828,200.082977 189.505081,199.833267 190.027023,199.256958 
	C190.278580,199.060120 190.480637,198.821365 191.013855,198.264114 
	C191.270538,198.066528 191.472214,197.823303 192.009903,197.257797 
	C192.282791,197.071777 192.501602,196.835602 193.057373,196.277725 
	C193.326065,196.084290 193.531555,195.838074 194.002487,195.303497 
	C194.213531,195.126373 194.389145,194.919205 195.031189,194.396667 
	C195.424408,193.981400 195.817627,193.566116 196.871384,192.637665 
	C196.812454,192.259796 196.753540,191.881943 196.694611,191.504089 
	C196.012497,191.982117 195.330383,192.460144 194.235672,193.058197 
	C193.986008,193.224915 193.818985,193.452347 193.305038,193.963394 
	C193.036591,194.162094 192.848114,194.419373 192.305054,194.959106 
	C192.034317,195.161911 191.849426,195.425034 191.321793,195.975266 
	C191.057022,196.177307 190.866699,196.434433 190.305511,196.951736 
	C190.031418,197.151337 189.841690,197.412262 189.314011,197.973892 
	C189.073975,198.201004 188.898834,198.470337 188.327225,198.972534 
	C188.036087,199.171997 187.858704,199.445297 187.376831,200.044006 
	C187.107849,200.252777 186.936935,200.523483 186.369720,201.115585 
	C186.075989,201.582092 185.782257,202.048584 185.120850,202.810760 
	C184.882095,203.026245 184.687180,203.275955 184.110077,203.788498 
	C183.855698,204.007355 183.694000,204.280975 183.221786,204.883514 
	C182.970383,205.103210 182.786133,205.369415 182.167053,205.847107 
	C181.868881,206.256256 181.570694,206.665421 180.999481,207.497742 
	C181.000107,207.665619 181.000748,207.833496 180.456497,207.957672 
M293.005463,108.759506 
	C292.785736,109.064438 292.566010,109.369370 292.346283,109.674301 
	C292.982758,109.534348 293.619232,109.394394 294.861816,108.981758 
	C294.803711,108.640366 294.745575,108.298973 294.687469,107.957573 
	C294.308502,108.147995 293.929504,108.338409 293.005463,108.759506 
M975.887024,316.834412 
	C975.887024,316.834412 975.647278,316.815338 975.647278,316.815338 
	C975.647278,316.815338 976.043396,316.977234 975.975403,317.445557 
	C976.072144,317.727844 976.168823,318.010162 976.265503,318.292450 
	C976.396851,318.221649 976.528259,318.150848 976.659607,318.080078 
	C976.436096,317.731476 976.212585,317.382874 975.887024,316.834412 
M747.851685,952.222046 
	C748.313660,951.901611 748.775635,951.581177 749.782532,951.127319 
	C749.965820,950.810120 750.149170,950.492859 750.332458,950.175598 
	C749.769897,950.304443 749.207397,950.433289 748.098511,950.731262 
	C747.594177,950.991455 747.089844,951.251648 746.068298,951.728638 
	C745.576233,951.993835 745.084167,952.259033 743.907166,952.732971 
	C740.081116,954.619019 736.255066,956.505066 732.429077,958.391113 
	C732.717590,958.905579 733.006165,959.419983 733.294739,959.934448 
	C737.287598,957.729492 741.280457,955.524536 745.836243,953.200928 
	C746.315796,952.902283 746.795349,952.603577 747.851685,952.222046 
M204.408890,183.299133 
	C201.775055,185.790649 199.141220,188.282150 196.507401,190.773651 
	C196.916992,191.196457 197.326599,191.619263 197.736206,192.042068 
	C200.560425,189.414810 203.384644,186.787537 206.981522,183.610031 
	C206.978531,183.198380 206.975540,182.786728 206.972549,182.375076 
	C206.324600,182.600204 205.676666,182.825348 204.408890,183.299133 
M702.084351,96.130775 
	C702.084351,96.130775 702.239197,96.190109 702.239197,96.190109 
	C702.239197,96.190109 701.971680,96.010750 702.330444,95.423279 
	C703.896057,96.040588 705.495911,96.583969 707.020447,97.289940 
	C710.667480,98.978729 714.279114,100.744026 717.905029,102.478439 
	C718.131775,101.944099 718.358459,101.409767 718.585144,100.875435 
	C712.505615,96.354485 705.664673,93.446335 697.529358,91.567177 
	C692.923340,89.963188 688.317322,88.359192 683.711304,86.755203 
	C683.498352,87.285583 683.285461,87.815964 683.072571,88.346336 
	C688.041687,90.360466 693.010864,92.374588 698.376831,94.906540 
	C699.590454,95.260361 700.804138,95.614189 702.084351,96.130775 
M452.156281,59.459568 
	C452.492706,59.420959 452.775696,59.277191 453.900940,59.152206 
	C459.216248,58.594868 464.531525,58.037533 469.846832,57.480198 
	C469.747864,56.871849 469.648865,56.263504 469.549896,55.655155 
	C466.980896,56.000858 464.404663,56.653297 461.845245,56.593060 
	C459.876312,56.546719 457.928497,55.603695 455.117188,54.912659 
	C449.678619,55.653954 444.240082,56.395252 438.801514,57.136547 
	C438.820892,57.359383 438.840271,57.582218 438.859650,57.805054 
	C440.680115,57.805054 442.500610,57.805054 444.321106,57.805054 
	C444.350861,58.059475 444.380646,58.313900 444.410431,58.568321 
	C443.018219,58.973366 441.626007,59.378410 440.233795,59.783451 
	C440.320648,60.211250 440.407501,60.639046 440.494354,61.066845 
	C443.662628,60.679939 446.830933,60.293037 450.616180,59.936485 
	C450.971100,59.746571 451.326019,59.556656 452.156281,59.459568 
M645.099243,992.625854 
	C661.488342,988.203735 677.811035,983.588623 693.185730,976.271851 
	C666.783936,983.435181 640.382202,990.598511 613.980408,997.761841 
	C614.063049,998.127930 614.145630,998.494019 614.228271,998.860107 
	C624.249329,996.857788 634.270447,994.855530 645.099243,992.625854 
M499.843719,55.773655 
	C508.040100,55.318554 516.236511,54.863449 525.297791,54.360321 
	C521.224609,54.035118 518.006409,53.778172 514.788208,53.521229 
	C514.824524,53.109776 514.860901,52.698322 514.897278,52.286869 
	C519.030090,52.286869 523.163879,52.229149 527.295349,52.303051 
	C531.454163,52.377438 535.609497,52.636147 539.768311,52.714977 
	C543.629944,52.788170 547.494141,52.730595 551.357178,52.730595 
	C551.325562,52.431187 551.293945,52.131783 551.262390,51.832375 
	C531.392944,51.832375 511.523590,51.832375 491.654175,51.832375 
	C491.494415,52.479523 491.334656,53.126675 491.174866,53.773823 
	C492.321747,54.376335 493.409943,55.230858 494.630920,55.515079 
	C496.034027,55.841705 497.554657,55.663460 499.843719,55.773655 
M703.443726,970.926025 
	C700.185852,972.351013 696.927979,973.776062 693.670105,975.201050 
	C693.908081,975.726685 694.146118,976.252258 694.384094,976.777832 
	C701.287231,973.911011 708.190369,971.044189 715.093506,968.177368 
	C714.913818,967.716675 714.734070,967.255920 714.554321,966.795227 
	C711.103943,968.120605 707.653564,969.445984 703.443726,970.926025 
M789.946411,132.513107 
	C792.485229,134.364243 795.024048,136.215378 797.562927,138.066513 
	C797.897766,137.599304 798.232666,137.132111 798.567566,136.664902 
	C794.654053,133.637436 790.740540,130.609970 786.827026,127.582497 
	C786.487305,127.999252 786.147583,128.416000 785.807861,128.832764 
	C786.979431,129.942352 788.151001,131.051941 789.946411,132.513107 
M586.396118,1001.950439 
	C591.171631,1001.528992 595.947144,1001.107544 600.722656,1000.686096 
	C593.211548,998.124451 585.955200,1001.531189 578.550354,1002.012756 
	C580.862854,1002.012756 583.175415,1002.012756 586.396118,1001.950439 
M737.689758,938.437561 
	C737.658875,938.690552 737.627991,938.943604 737.597107,939.196594 
	C737.735779,939.176086 737.987000,939.175049 737.994446,939.131897 
	C738.035889,938.891479 738.018127,938.640808 737.689758,938.437561 
M974.170288,313.510040 
	C974.170288,313.510040 973.888367,313.427124 973.888367,313.427124 
	C973.888367,313.427124 974.060303,313.594543 974.170288,313.510040 
M602.343506,998.516235 
	C602.343506,998.516235 602.526978,998.623901 602.526978,998.623901 
	C602.526978,998.623901 602.502258,998.404419 602.343506,998.516235 
M971.503235,308.583557 
	C971.503235,308.583557 971.463684,308.498260 971.503235,308.583557 
M972.534241,310.462982 
	C972.534241,310.462982 972.510559,310.506378 972.534241,310.462982 
z"/>
<path fill="#74F9ED" opacity="1.000000" stroke="none" 
	d="
M333.956299,715.803101 
	C336.515717,698.785339 338.968842,682.198303 341.435486,665.613220 
	C342.336761,659.553284 343.270203,653.498108 344.266418,646.930237 
	C350.811005,646.930237 357.275330,646.817627 363.727875,647.042725 
	C364.785980,647.079651 366.384857,648.406921 366.734924,649.467529 
	C373.883148,671.125305 380.687775,692.897949 387.973755,714.508484 
	C395.201721,735.946960 405.273712,755.544434 425.909882,767.416809 
	C436.587952,773.560120 448.454132,776.228394 460.470673,777.438660 
	C481.633850,779.570190 502.745483,778.779541 522.584656,770.116272 
	C555.348450,755.809265 574.019897,730.867004 577.241882,694.944458 
	C580.669434,656.729370 565.239624,626.077209 537.427734,601.553101 
	C517.657166,584.119629 496.280823,568.505127 475.591980,552.115540 
	C448.846436,530.927856 424.413025,507.609802 407.419952,477.540771 
	C395.677399,456.762543 390.411987,434.122833 389.115814,410.485748 
	C387.453491,380.171387 393.720764,351.629700 410.054321,325.872833 
	C429.517822,295.180359 457.372894,274.706879 491.119476,262.028259 
	C524.473022,249.497284 559.017517,245.652878 594.443726,248.296127 
	C625.581177,250.619385 655.810974,256.983673 684.650513,268.969238 
	C695.013977,273.276276 704.643494,279.336823 714.667480,284.481140 
	C717.425842,285.896729 718.165405,287.482208 717.549683,290.732635 
	C711.255737,323.958405 705.189575,357.227325 699.070251,390.486115 
	C698.860046,391.628510 698.710266,392.787354 698.619324,393.945374 
	C698.330872,397.616150 696.965820,399.620636 692.689880,399.323639 
	C687.060608,398.932678 681.383667,399.227570 675.061279,399.227570 
	C673.071045,391.206787 671.151550,383.210236 669.098267,375.248169 
	C664.056763,355.698853 660.113281,335.863708 651.521912,317.331116 
	C640.277588,293.075653 622.347778,278.275330 595.493164,274.283447 
	C572.981384,270.937073 551.005920,271.892395 529.967468,280.937866 
	C509.011047,289.948059 492.194031,303.627960 483.632874,325.664581 
	C477.756195,340.791260 477.502167,356.495483 479.450562,372.256378 
	C483.253845,403.021698 500.289062,426.566681 522.547729,446.400604 
	C539.506958,461.512421 557.857544,475.069763 575.680420,489.203644 
	C598.895386,507.613678 621.719543,526.472595 639.883850,550.134949 
	C664.482849,582.179810 675.258179,618.266968 671.175781,658.742188 
	C666.607544,704.034119 645.268127,739.420288 608.419067,765.464355 
	C583.959778,782.751709 556.392578,792.802917 526.946655,797.977600 
	C497.400452,803.169861 467.759644,804.042114 438.027100,800.219604 
	C403.986359,795.843201 371.076538,787.391663 340.253265,771.878113 
	C335.963837,769.719299 330.396545,767.996704 328.216248,764.384705 
	C326.313171,761.231995 328.095886,755.664917 328.699371,751.225586 
	C330.287445,739.544128 332.120117,727.895996 333.956299,715.803101 
z"/>
<path fill="#3F68C2" opacity="1.000000" stroke="none" 
	d="
M801.043396,899.085327 
	C800.735718,898.732727 800.428040,898.380066 799.827515,897.827393 
	C807.866394,891.218506 816.198242,884.809570 825.519897,877.639160 
	C822.225525,885.648254 813.916931,887.590820 811.049927,894.643066 
	C812.649292,893.681763 814.248657,892.720520 816.335083,891.782166 
	C816.940308,891.934814 817.058472,892.064575 817.176636,892.194397 
	C812.959656,895.819946 809.000793,899.810303 804.480896,903.007568 
	C785.097046,916.718933 765.122559,929.492004 743.318420,939.841675 
	C742.349731,938.699036 741.738892,937.527588 740.994568,936.100342 
	C742.824097,935.187561 745.005432,934.099182 747.608521,933.323547 
	C748.691711,933.395752 749.353149,933.155212 750.014526,932.914673 
	C750.014526,932.914673 750.000549,933.000732 750.338989,933.049438 
	C751.301331,932.708374 751.925293,932.318542 752.549194,931.928711 
	C752.549194,931.928711 752.518494,932.032227 752.843018,932.000854 
	C753.437500,931.616272 753.707581,931.263062 753.977600,930.909912 
	C753.977600,930.909912 753.975830,930.980164 754.367920,931.057007 
	C755.150452,930.405334 755.540955,929.676758 755.931519,928.948181 
	C755.931458,928.948181 755.973633,928.968079 756.162598,929.354370 
	C769.269775,921.955811 782.190674,914.175110 795.077759,906.338867 
	C795.244812,906.237305 794.981934,905.428711 794.919678,904.950134 
	C794.919678,904.950134 794.948914,904.940125 795.139832,905.327271 
	C799.191833,903.081238 803.052856,900.447998 807.251404,897.703125 
	C808.535645,896.720825 809.482483,895.850220 810.429321,894.979553 
	C810.143188,894.617554 809.857056,894.255493 809.570923,893.893494 
	C808.270142,894.812317 806.969299,895.731201 805.348022,896.740234 
	C803.699463,897.582031 802.371399,898.333679 801.043396,899.085327 
z"/>
<path fill="#4470D0" opacity="1.000000" stroke="none" 
	d="
M350.289551,85.798477 
	C349.952972,85.236572 350.001831,84.733307 350.159119,83.864395 
	C351.694489,82.694809 353.170258,81.963982 354.528534,81.057137 
	C355.243622,80.579720 355.633209,79.474426 356.373840,79.196510 
	C368.648499,74.590706 380.955597,70.071304 393.255432,65.532585 
	C393.667358,66.153618 394.079285,66.774651 394.491211,67.395676 
	C392.920227,68.815063 391.584503,70.854088 389.740387,71.554291 
	C376.777252,76.476395 363.709381,81.122704 350.289551,85.798477 
z"/>
<path fill="#28447E" opacity="1.000000" stroke="none" 
	d="
M547.323486,67.968018 
	C546.326416,66.373627 545.766357,64.899231 544.867493,62.532738 
	C548.427856,62.750011 551.525879,62.813087 554.594177,63.148003 
	C568.266357,64.640366 581.922424,66.287262 595.607483,67.644791 
	C597.133362,67.796150 598.876282,65.792732 600.397400,65.951263 
	C603.978760,66.324493 607.469910,67.490875 611.030823,68.158669 
	C613.185608,68.562744 615.402588,68.634773 617.591614,68.855988 
	C617.553101,69.317421 617.514526,69.778854 617.476013,70.240288 
	C609.122375,69.666924 600.767578,69.111069 592.415466,68.515961 
	C580.841736,67.691315 569.272583,66.798714 557.693787,66.055107 
	C556.534973,65.980690 555.323059,66.734230 554.104126,67.506485 
	C551.968445,67.968971 549.864502,68.028488 547.323486,67.968018 
z"/>
<path fill="#436FCD" opacity="1.000000" stroke="none" 
	d="
M868.878296,206.036499 
	C868.813904,205.180252 868.858521,204.616638 869.216675,203.635376 
	C869.710205,203.131607 869.890137,203.045456 870.070007,202.959305 
	C870.070007,202.959305 870.013062,202.995728 869.994812,203.282471 
	C870.341125,203.703766 870.705750,203.838318 871.070312,203.972870 
	C871.070312,203.972855 871.007996,203.992035 870.993652,204.280884 
	C871.343628,204.709488 871.707947,204.849258 872.072327,204.989044 
	C872.072327,204.989044 872.005310,204.994720 871.991089,205.284729 
	C872.342041,205.713379 872.707275,205.852020 873.072449,205.990646 
	C873.072449,205.990646 873.008423,205.997208 872.948120,206.314896 
	C874.947571,208.745285 877.007263,210.858002 879.066956,212.970703 
	C879.066956,212.970688 879.007324,212.997543 879.021973,213.268402 
	C879.377991,213.680405 879.719299,213.821564 880.060608,213.962708 
	C880.060608,213.962723 880.002502,213.996979 880.018799,214.274170 
	C880.377014,214.690506 880.718872,214.829636 881.060791,214.968765 
	C881.060791,214.968765 881.003540,214.996399 880.999756,215.284363 
	C881.350403,215.703674 881.704834,215.835007 882.059326,215.966370 
	C882.059326,215.966370 882.001831,215.996216 881.953003,216.311066 
	C883.291565,218.076248 884.679016,219.526550 886.066406,220.976852 
	C886.066406,220.976852 886.006287,220.996216 886.014160,221.271347 
	C886.368164,221.685867 886.714233,221.825256 887.060364,221.964645 
	C887.060364,221.964645 887.002869,221.996979 887.012085,222.279449 
	C887.367004,222.695450 887.712646,222.828964 888.058289,222.962494 
	C888.058289,222.962479 888.001221,222.997025 887.957397,223.306793 
	C888.964417,224.745010 890.015381,225.873474 891.066284,227.001938 
	C891.066284,227.001938 890.999878,226.999680 891.006714,227.277954 
	C891.362671,227.694260 891.711792,227.832275 892.060852,227.970276 
	C892.060852,227.970276 892.002502,227.995697 891.970764,228.312073 
	C893.313660,230.075439 894.688293,231.522430 896.062988,232.969421 
	C896.062988,232.969406 896.003540,232.996918 895.976990,233.311172 
	C896.988708,234.737457 898.026917,235.849503 899.065186,236.961533 
	C899.065186,236.961533 899.002441,236.997635 898.963867,237.314392 
	C900.304443,239.074310 901.683594,240.517487 903.062683,241.960648 
	C903.062683,241.960648 903.004578,241.989502 902.972229,242.299866 
	C903.652039,243.407822 904.364197,244.205414 905.076355,245.003021 
	C905.076355,245.003021 905.001160,244.999466 905.008667,245.281494 
	C905.368958,245.703735 905.721619,245.843964 906.074341,245.984177 
	C906.074341,245.984177 906.009094,245.991272 905.921265,246.297836 
	C906.579041,248.022430 907.324646,249.440475 907.930847,251.097046 
	C907.508850,251.567230 907.226257,251.798889 906.943665,252.030518 
	C894.291504,236.796707 881.639343,221.562897 868.878296,206.036499 
z"/>
<path fill="#28447E" opacity="1.000000" stroke="none" 
	d="
M664.209106,83.211800 
	C668.942871,83.465279 673.670227,84.098946 678.565796,85.055099 
	C678.153687,85.735054 677.573364,86.092529 676.629761,86.626350 
	C675.660217,87.914001 675.054016,89.025299 674.447754,90.136597 
	C674.447754,90.136589 674.446594,90.067841 674.156738,89.807472 
	C673.060425,89.382225 672.253967,89.217339 671.447571,89.052460 
	C671.447571,89.052460 671.497681,89.011299 671.261597,88.853821 
	C670.345215,88.802086 669.664917,88.907837 668.984558,89.013596 
	C661.951294,86.764198 654.918030,84.514793 647.884766,82.265396 
	C647.980591,81.808937 648.076355,81.352478 648.172180,80.896019 
	C651.945679,81.861092 655.694153,82.948349 659.505249,83.730209 
	C660.998718,84.036606 662.632690,83.658401 664.209106,83.211800 
z"/>
<path fill="#33559D" opacity="1.000000" stroke="none" 
	d="
M1008.327637,406.044342 
	C1008.024170,402.993134 1008.108093,400.100128 1008.510376,397.065826 
	C1011.340637,407.639465 1013.852600,418.354401 1016.364502,429.069305 
	C1015.776978,429.212524 1015.189453,429.355774 1014.601990,429.498993 
	C1010.087219,422.458862 1011.437317,413.752045 1008.327637,406.044342 
z"/>
<path fill="#26427A" opacity="1.000000" stroke="none" 
	d="
M724.930176,110.709297 
	C728.880737,107.212151 731.994995,111.238968 735.881470,112.541992 
	C738.615295,114.455070 741.041321,115.734505 743.467285,117.013931 
	C743.683105,116.596657 743.898926,116.179382 744.114685,115.762108 
	C742.354187,114.695015 740.593689,113.627922 738.833191,112.560837 
	C739.148010,112.212013 739.657410,111.513191 739.749756,111.564507 
	C744.459778,114.183586 749.134338,116.866570 753.723755,119.912209 
	C751.737366,119.361954 749.898804,118.264015 747.914062,117.608200 
	C747.094971,117.337563 745.962219,118.016258 744.988037,118.629364 
	C745.003967,118.995544 745.042419,118.956268 745.042419,118.956268 
	C738.392822,116.305824 731.743164,113.655380 724.930176,110.709297 
z"/>
<path fill="#416CC8" opacity="1.000000" stroke="none" 
	d="
M716.465210,959.113037 
	C716.061035,958.702087 716.038513,958.251221 716.015259,957.461426 
	C723.107544,953.889221 730.200684,950.655823 737.293762,947.422485 
	C737.600159,948.102112 737.906555,948.781677 738.212952,949.461304 
	C731.090942,952.665222 723.968872,955.869202 716.465210,959.113037 
z"/>
<path fill="#3B62B6" opacity="1.000000" stroke="none" 
	d="
M944.066895,307.906311 
	C943.365845,310.543610 941.945190,309.988953 940.886902,308.300751 
	C937.876465,303.498474 935.060852,298.574066 932.438293,293.348877 
	C933.308716,292.991028 933.909546,292.981995 934.637756,293.324585 
	C935.954041,295.802063 937.018799,298.014496 938.405640,300.002197 
	C938.835327,300.618103 940.140076,300.623383 941.044250,300.908173 
	C941.044250,300.908173 941.085815,300.925323 940.670654,301.138916 
	C941.199951,302.560852 942.144348,303.769135 943.088745,304.977417 
	C943.088745,304.977417 943.015076,304.991608 942.782593,305.272217 
	C943.066223,306.369659 943.582336,307.186493 944.098450,308.003326 
	C944.098450,308.003326 944.030518,307.936890 944.066895,307.906311 
z"/>
<path fill="#33559D" opacity="1.000000" stroke="none" 
	d="
M837.963257,873.943054 
	C837.438110,875.007751 837.173096,876.372742 836.346130,877.088928 
	C830.528015,882.127747 824.594177,887.033020 818.343506,891.596008 
	C817.972290,890.941467 817.954956,890.671936 817.937622,890.402405 
	C824.414001,885.009583 830.890381,879.616760 837.675415,874.100708 
	C837.984131,873.977417 837.963257,873.943054 837.963257,873.943054 
z"/>
<path fill="#2B498A" opacity="1.000000" stroke="none" 
	d="
M996.616577,505.367126 
	C997.280029,505.029388 997.747192,505.047211 998.559082,504.999908 
	C998.604004,510.880219 998.304260,516.825684 998.004456,522.771118 
	C997.476379,522.780518 996.948364,522.789917 996.420288,522.799316 
	C996.420288,517.107117 996.420288,511.414948 996.616577,505.367126 
z"/>
<path fill="#416CC8" opacity="1.000000" stroke="none" 
	d="
M153.927353,191.899078 
	C154.841568,192.547546 156.131836,193.865555 156.014938,194.005142 
	C153.466003,197.048843 150.760559,199.961517 147.483887,202.723633 
	C146.414627,202.334091 145.946671,202.120270 145.478699,201.906448 
	C148.201813,198.610886 150.924911,195.315323 153.927353,191.899078 
z"/>
<path fill="#3B62B6" opacity="1.000000" stroke="none" 
	d="
M907.066589,252.349884 
	C907.226257,251.798889 907.508850,251.567230 908.193481,251.309784 
	C912.317139,256.996582 916.038879,262.709198 919.536377,268.594452 
	C919.163574,268.883057 919.014832,268.999023 918.866028,269.114990 
	C914.973877,263.633087 911.081726,258.151154 907.066589,252.349884 
z"/>
<path fill="#203866" opacity="1.000000" stroke="none" 
	d="
M978.342468,321.715698 
	C980.708435,327.179535 983.074463,332.643402 985.380249,338.416870 
	C985.067566,339.459381 984.815063,340.192230 984.001709,342.552765 
	C982.360840,338.035400 981.216248,334.884186 980.057556,330.969910 
	C979.506104,329.464630 978.968689,328.722382 978.431213,327.980103 
	C978.113464,327.694763 977.795654,327.409393 977.548706,326.960358 
	C977.712402,325.631531 977.805298,324.466339 977.998657,322.608276 
	C978.099121,321.915375 978.342468,321.715698 978.342468,321.715698 
z"/>
<path fill="#26427A" opacity="1.000000" stroke="none" 
	d="
M145.166687,201.960831 
	C145.946671,202.120270 146.414627,202.334091 147.171082,202.807739 
	C144.976730,206.253876 142.541824,209.480469 139.945160,212.571152 
	C139.649170,212.923447 138.446014,212.513596 137.403046,212.309875 
	C139.713272,208.780136 142.283966,205.397675 145.166687,201.960831 
z"/>
<path fill="#365BA9" opacity="1.000000" stroke="none" 
	d="
M676.993042,86.450005 
	C677.573364,86.092529 678.153687,85.735054 678.887817,85.171707 
	C679.318420,84.953415 679.565857,85.032539 679.898376,85.744164 
	C680.010498,86.543297 680.008179,86.801453 680.005920,87.059593 
	C679.324707,87.489006 678.643555,87.918427 678.643250,87.918617 
	C681.619568,90.257446 684.237610,92.314751 686.879944,94.757050 
	C683.792542,94.059288 680.680847,92.976532 677.341919,91.117935 
	C677.074036,89.044739 677.033508,87.747368 676.993042,86.450005 
z"/>
<path fill="#4470D0" opacity="1.000000" stroke="none" 
	d="
M934.510315,292.972961 
	C933.909546,292.981995 933.308716,292.991028 932.407593,292.990967 
	C931.415649,291.588257 930.724182,290.194580 929.965088,288.086731 
	C929.934814,286.858124 929.972168,286.343719 930.355591,285.906189 
	C931.588989,285.666534 932.476440,285.350006 933.363892,285.033508 
	C934.609924,287.035004 935.855957,289.036499 936.699707,291.283081 
	C935.701721,292.009766 935.106018,292.491364 934.510315,292.972961 
z"/>
<path fill="#2E4F8F" opacity="1.000000" stroke="none" 
	d="
M928.367126,285.619049 
	C925.579468,281.016113 922.791809,276.413208 920.241089,271.317261 
	C920.672913,270.721527 920.867798,270.618805 921.289673,270.707153 
	C924.061707,275.554810 926.606628,280.211395 928.949219,285.049194 
	C928.620300,285.359985 928.493713,285.489502 928.367126,285.619049 
z"/>
<path fill="#416CC8" opacity="1.000000" stroke="none" 
	d="
M166.243408,181.714539 
	C164.496017,181.469101 164.853500,187.263474 161.815750,183.468231 
	C163.150833,181.424942 164.534470,179.688049 165.918091,177.951172 
	C166.219788,178.110397 166.521484,178.269623 166.823181,178.428848 
	C166.557327,179.389786 166.291473,180.350723 166.243408,181.714539 
z"/>
<path fill="#26427A" opacity="1.000000" stroke="none" 
	d="
M755.299438,121.536491 
	C755.651489,120.697807 756.386292,119.513962 756.525330,119.580231 
	C757.962402,120.264969 759.303162,121.151566 760.834351,122.269142 
	C759.133789,122.294762 757.269653,122.033203 755.299438,121.536491 
z"/>
<path fill="#2B498A" opacity="1.000000" stroke="none" 
	d="
M995.539185,482.067413 
	C995.971252,482.976410 996.253479,484.238739 996.356689,485.742432 
	C995.914978,484.796112 995.652100,483.608459 995.539185,482.067413 
z"/>
<path fill="#5082F2" opacity="1.000000" stroke="none" 
	d="
M676.629761,86.626350 
	C677.033508,87.747368 677.074036,89.044739 677.191528,90.825531 
	C676.500305,91.132195 675.732178,90.955421 674.705933,90.457626 
	C675.054016,89.025299 675.660217,87.914001 676.629761,86.626350 
z"/>
<path fill="#2B498A" opacity="1.000000" stroke="none" 
	d="
M994.517700,470.051880 
	C994.908386,470.666992 995.181335,471.613098 995.288696,472.774170 
	C994.882019,472.120361 994.640991,471.251617 994.517700,470.051880 
z"/>
<path fill="#26427A" opacity="1.000000" stroke="none" 
	d="
M744.984497,119.014961 
	C745.679565,119.133377 746.394043,119.232376 747.108582,119.331375 
	C747.050293,119.621719 746.992004,119.912056 746.933716,120.202393 
	C746.292603,119.972572 745.651550,119.742744 745.026428,119.234596 
	C745.042419,118.956268 745.003967,118.995544 744.984497,119.014961 
z"/>
<path fill="#4470D0" opacity="1.000000" stroke="none" 
	d="
M341.792114,85.588470 
	C341.431427,86.061874 340.784424,86.472359 339.832764,86.818848 
	C340.187347,86.345093 340.846588,85.935326 341.792114,85.588470 
z"/>
<path fill="#2E4F8F" opacity="1.000000" stroke="none" 
	d="
M930.009521,285.829346 
	C929.972168,286.343719 929.934814,286.858124 929.887573,287.759460 
	C929.466614,287.479279 929.055542,286.812134 928.505737,285.882019 
	C928.493713,285.489502 928.620300,285.359985 929.154663,285.147644 
	C929.834778,285.247559 929.983826,285.502380 930.009521,285.829346 
z"/>
<path fill="#5082F2" opacity="1.000000" stroke="none" 
	d="
M978.541077,328.331299 
	C978.968689,328.722382 979.506104,329.464630 980.021118,330.590759 
	C979.549377,330.210602 979.100159,329.446533 978.541077,328.331299 
z"/>
<path fill="#4470D0" opacity="1.000000" stroke="none" 
	d="
M396.951843,68.671799 
	C396.990112,68.672470 396.913605,68.671127 396.951843,68.671799 
z"/>
<path fill="#365BA9" opacity="1.000000" stroke="none" 
	d="
M668.991699,89.007172 
	C669.664917,88.907837 670.345215,88.802086 671.267029,88.885780 
	C671.310791,89.165848 671.113037,89.256470 670.277954,89.200897 
	C669.422607,89.041084 669.204651,89.027466 668.986755,89.013855 
	C668.986755,89.013855 668.998840,89.000748 668.991699,89.007172 
z"/>
<path fill="#33559D" opacity="1.000000" stroke="none" 
	d="
M837.995178,873.993042 
	C838.320435,873.767334 838.629761,873.518677 838.957642,873.297607 
	C838.985046,873.279114 839.137817,873.446533 839.232361,873.527588 
	C838.956177,873.776489 838.679993,874.025391 838.183594,874.108704 
	C837.963257,873.943054 837.984131,873.977417 837.995178,873.993042 
z"/>
<path fill="#365BA9" opacity="1.000000" stroke="none" 
	d="
M671.659668,89.471649 
	C672.253967,89.217339 673.060425,89.382225 674.190674,89.812592 
	C673.633606,90.015663 672.752686,89.953247 671.659668,89.471649 
z"/>
<path fill="#3B62B6" opacity="1.000000" stroke="none" 
	d="
M920.181274,270.969666 
	C919.576965,270.640869 919.269470,270.166626 918.914001,269.403687 
	C919.014832,268.999023 919.163574,268.883057 919.722656,268.839783 
	C920.442932,269.447021 920.752808,269.981567 921.062622,270.516113 
	C920.867798,270.618805 920.672913,270.721527 920.181274,270.969666 
z"/>
<path fill="#28447E" opacity="1.000000" stroke="none" 
	d="
M669.114380,89.137253 
	C669.204651,89.027466 669.422607,89.041084 669.956909,89.142975 
	C669.929443,89.241051 669.585693,89.250847 669.114380,89.137253 
z"/>
<path fill="#3F68C2" opacity="1.000000" stroke="none" 
	d="
M817.680542,890.548218 
	C817.954956,890.671936 817.972290,890.941467 817.998230,891.616089 
	C818.006836,892.021179 817.597839,892.137146 817.387207,892.165771 
	C817.058472,892.064575 816.940308,891.934814 816.653442,891.601196 
	C816.797668,891.162964 817.110535,890.928467 817.680542,890.548218 
z"/>
<path fill="#0D172B" opacity="1.000000" stroke="none" 
	d="
M644.695374,992.739502 
	C634.270447,994.855530 624.249329,996.857788 614.228271,998.860107 
	C614.145630,998.494019 614.063049,998.127930 613.980408,997.761841 
	C640.382202,990.598511 666.783936,983.435181 693.185730,976.271851 
	C677.811035,983.588623 661.488342,988.203735 644.695374,992.739502 
z"/>
<path fill="#2A4986" opacity="1.000000" stroke="none" 
	d="
M499.433990,55.739082 
	C497.554657,55.663460 496.034027,55.841705 494.630920,55.515079 
	C493.409943,55.230858 492.321747,54.376335 491.174866,53.773823 
	C491.334656,53.126675 491.494415,52.479523 491.654175,51.832375 
	C511.523590,51.832375 531.392944,51.832375 551.262390,51.832375 
	C551.293945,52.131783 551.325562,52.431187 551.357178,52.730595 
	C547.494141,52.730595 543.629944,52.788170 539.768311,52.714977 
	C535.609497,52.636147 531.454163,52.377438 527.295349,52.303051 
	C523.163879,52.229149 519.030090,52.286869 514.897278,52.286869 
	C514.860901,52.698322 514.824524,53.109776 514.788208,53.521229 
	C518.006409,53.778172 521.224609,54.035118 525.297791,54.360321 
	C516.236511,54.863449 508.040100,55.318554 499.433990,55.739082 
M508.003693,53.512562 
	C508.804138,53.512562 509.604553,53.512562 510.404999,53.512562 
	C510.338684,53.141895 510.272369,52.771229 510.206055,52.400562 
	C509.540649,52.616566 508.875275,52.832573 508.003693,53.512562 
M500.991333,54.868301 
	C500.888184,54.591679 500.785034,54.315052 500.681915,54.038429 
	C500.376434,54.219498 500.070984,54.400566 499.765503,54.581631 
	C500.009827,54.711647 500.254181,54.841660 500.991333,54.868301 
z"/>
<path fill="#0C1629" opacity="1.000000" stroke="none" 
	d="
M165.700256,227.508728 
	C155.720322,241.964325 145.740387,256.419922 135.760452,270.875519 
	C135.007751,270.336670 134.255066,269.797791 133.502380,269.258911 
	C143.709839,255.167358 153.917297,241.075806 164.654541,227.037598 
	C165.356308,227.230194 165.528275,227.369446 165.700256,227.508728 
z"/>
<path fill="#070D18" opacity="1.000000" stroke="none" 
	d="
M921.289673,270.707153 
	C920.752808,269.981567 920.442932,269.447021 919.946838,268.667145 
	C916.038879,262.709198 912.317139,256.996582 908.332886,251.071259 
	C907.324646,249.440475 906.579041,248.022430 905.931030,246.266479 
	C909.529602,250.150879 913.357422,254.147598 916.460999,258.644196 
	C922.259338,267.045288 927.637390,275.736481 933.277100,284.670227 
	C932.476440,285.350006 931.588989,285.666534 930.355530,285.906189 
	C929.983826,285.502380 929.834778,285.247559 929.356995,284.966431 
	C926.606628,280.211395 924.061707,275.554810 921.289673,270.707153 
z"/>
<path fill="#000001" opacity="1.000000" stroke="none" 
	d="
M794.582764,904.782959 
	C794.981934,905.428711 795.244812,906.237305 795.077759,906.338867 
	C782.190674,914.175110 769.269775,921.955811 756.156250,929.331970 
	C768.722595,920.820740 781.484192,912.718262 794.582764,904.782959 
z"/>
<path fill="#0A1221" opacity="1.000000" stroke="none" 
	d="
M453.005280,59.028259 
	C452.775696,59.277191 452.492706,59.420959 451.609497,59.399483 
	C450.708191,59.528309 450.353699,59.717216 449.999207,59.906132 
	C446.830933,60.293037 443.662628,60.679939 440.494354,61.066845 
	C440.407501,60.639046 440.320648,60.211250 440.233795,59.783451 
	C441.626007,59.378410 443.018219,58.973366 444.410431,58.568321 
	C444.380646,58.313900 444.350861,58.059475 444.321106,57.805054 
	C442.500610,57.805054 440.680115,57.805054 438.859650,57.805054 
	C438.840271,57.582218 438.820892,57.359383 438.801514,57.136547 
	C444.240082,56.395252 449.678619,55.653954 455.344635,55.238441 
	C454.716492,56.718903 453.860870,57.873581 453.005280,59.028259 
z"/>
<path fill="#2E4F8F" opacity="1.000000" stroke="none" 
	d="
M698.199951,91.859558 
	C705.664673,93.446335 712.505615,96.354485 718.585144,100.875435 
	C718.358459,101.409767 718.131775,101.944099 717.905029,102.478439 
	C714.279114,100.744026 710.667480,98.978729 707.020447,97.289940 
	C705.495911,96.583969 703.896057,96.040588 702.164795,95.708878 
	C701.999084,95.994484 702.017761,95.968010 702.017761,95.968018 
	C700.804138,95.614189 699.590454,95.260361 698.257507,94.230667 
	C698.158813,92.989708 698.179382,92.424637 698.199951,91.859558 
z"/>
<path fill="#12213C" opacity="1.000000" stroke="none" 
	d="
M797.063599,923.639038 
	C790.741516,927.683533 784.419373,931.727966 778.097290,935.772461 
	C777.802002,935.308655 777.506775,934.844788 777.211487,934.380981 
	C783.562317,930.266235 789.913208,926.151489 796.646667,922.406372 
	C797.040710,923.063660 797.052185,923.351318 797.063599,923.639038 
z"/>
<path fill="#12213C" opacity="1.000000" stroke="none" 
	d="
M703.823486,970.848633 
	C707.653564,969.445984 711.103943,968.120605 714.554321,966.795227 
	C714.734070,967.255920 714.913818,967.716675 715.093506,968.177368 
	C708.190369,971.044189 701.287231,973.911011 694.384094,976.777832 
	C694.146118,976.252258 693.908081,975.726685 693.670105,975.201050 
	C696.927979,973.776062 700.185852,972.351013 703.823486,970.848633 
z"/>
<path fill="#0A1221" opacity="1.000000" stroke="none" 
	d="
M868.621826,202.317841 
	C863.626831,197.616241 858.631897,192.914642 853.636902,188.213028 
	C854.161438,187.684677 854.685913,187.156326 855.210388,186.627975 
	C859.954285,191.391235 864.698242,196.154495 869.327942,201.401337 
	C869.016418,202.029205 868.819153,202.173523 868.621826,202.317841 
z"/>
<path fill="#12213C" opacity="1.000000" stroke="none" 
	d="
M453.453125,59.090233 
	C453.860870,57.873581 454.716492,56.718903 455.771698,55.311821 
	C457.928497,55.603695 459.876312,56.546719 461.845245,56.593060 
	C464.404663,56.653297 466.980896,56.000858 469.549896,55.655155 
	C469.648865,56.263504 469.747864,56.871849 469.846832,57.480198 
	C464.531525,58.037533 459.216248,58.594868 453.453125,59.090233 
z"/>
<path fill="#0C1629" opacity="1.000000" stroke="none" 
	d="
M697.864624,91.713364 
	C698.179382,92.424637 698.158813,92.989708 698.059082,93.971756 
	C693.010864,92.374588 688.041687,90.360466 683.072571,88.346336 
	C683.285461,87.815964 683.498352,87.285583 683.711304,86.755203 
	C688.317322,88.359192 692.923340,89.963188 697.864624,91.713364 
z"/>
<path fill="#12213C" opacity="1.000000" stroke="none" 
	d="
M789.634521,132.337311 
	C788.151001,131.051941 786.979431,129.942352 785.807861,128.832764 
	C786.147583,128.416000 786.487305,127.999252 786.827026,127.582497 
	C790.740540,130.609970 794.654053,133.637436 798.567566,136.664902 
	C798.232666,137.132111 797.897766,137.599304 797.562927,138.066513 
	C795.024048,136.215378 792.485229,134.364243 789.634521,132.337311 
z"/>
<path fill="#203866" opacity="1.000000" stroke="none" 
	d="
M585.942017,1001.981567 
	C583.175415,1002.012756 580.862854,1002.012756 578.550354,1002.012756 
	C585.955200,1001.531189 593.211548,998.124451 600.722656,1000.686096 
	C595.947144,1001.107544 591.171631,1001.528992 585.942017,1001.981567 
z"/>
<path fill="#12213C" opacity="1.000000" stroke="none" 
	d="
M306.013123,101.026711 
	C309.466339,99.117973 312.919556,97.209236 316.727112,95.535263 
	C317.054199,96.178978 317.026917,96.587921 316.999634,96.996864 
	C313.612427,98.824364 310.225250,100.651871 306.458313,102.214249 
	C306.056793,101.641647 306.034973,101.334183 306.013123,101.026711 
z"/>
<path fill="#000001" opacity="1.000000" stroke="none" 
	d="
M800.844177,899.348511 
	C802.371399,898.333679 803.699463,897.582031 805.649414,897.042114 
	C806.485535,897.440735 806.699768,897.627747 806.913940,897.814697 
	C803.052856,900.447998 799.191833,903.081238 795.147095,905.313599 
	C796.857239,903.145752 798.751099,901.378723 800.844177,899.348511 
z"/>
<path fill="#28447E" opacity="1.000000" stroke="none" 
	d="
M745.273315,953.319580 
	C741.280457,955.524536 737.287598,957.729492 733.294739,959.934448 
	C733.006165,959.419983 732.717590,958.905579 732.429077,958.391113 
	C736.255066,956.505066 740.081116,954.619019 744.417847,952.829224 
	C745.043396,953.056885 745.158386,953.188232 745.273315,953.319580 
z"/>
<path fill="#203866" opacity="1.000000" stroke="none" 
	d="
M305.674194,101.108353 
	C306.034973,101.334183 306.056793,101.641647 306.132812,102.408707 
	C302.970947,104.668106 299.754791,106.467903 296.538666,108.267700 
	C296.301514,107.870033 296.064331,107.472366 295.827179,107.074707 
	C298.996552,105.113136 302.165894,103.151566 305.674194,101.108353 
z"/>
<path fill="#000001" opacity="1.000000" stroke="none" 
	d="
M934.637756,293.324585 
	C935.106018,292.491364 935.701721,292.009766 936.685791,291.622986 
	C938.463318,294.546051 939.852478,297.374329 941.142944,300.555389 
	C940.140076,300.623383 938.835327,300.618103 938.405640,300.002197 
	C937.018799,298.014496 935.954041,295.802063 934.637756,293.324585 
z"/>
<path fill="#12213C" opacity="1.000000" stroke="none" 
	d="
M206.208862,184.160248 
	C203.384644,186.787537 200.560425,189.414810 197.736206,192.042068 
	C197.326599,191.619263 196.916992,191.196457 196.507401,190.773651 
	C199.141220,188.282150 201.775055,185.790649 204.874207,183.399490 
	C205.629318,183.719986 205.919083,183.940125 206.208862,184.160248 
z"/>
<path fill="#12213C" opacity="1.000000" stroke="none" 
	d="
M164.940765,226.865448 
	C166.747360,224.025940 168.797546,221.411896 171.325439,218.810730 
	C171.942825,218.950851 172.082520,219.078110 172.222229,219.205383 
	C170.222366,221.853363 168.222519,224.501343 165.961456,227.329010 
	C165.528275,227.369446 165.356308,227.230194 164.940765,226.865448 
z"/>
<path fill="#12213C" opacity="1.000000" stroke="none" 
	d="
M879.267944,212.647064 
	C877.007263,210.858002 874.947571,208.745285 872.966431,206.288391 
	C875.186279,208.070618 877.327637,210.197021 879.267944,212.647064 
z"/>
<path fill="#12213C" opacity="1.000000" stroke="none" 
	d="
M171.598068,218.627930 
	C172.907150,216.553024 174.421310,214.673782 176.382477,212.801208 
	C176.962891,212.949234 177.096283,213.090622 177.229675,213.231995 
	C175.748810,215.113632 174.267929,216.995239 172.504639,219.041122 
	C172.082520,219.078110 171.942825,218.950851 171.598068,218.627930 
z"/>
<path fill="#000001" opacity="1.000000" stroke="none" 
	d="
M738.477905,112.610245 
	C740.593689,113.627922 742.354187,114.695015 744.114685,115.762108 
	C743.898926,116.179382 743.683105,116.596657 743.467285,117.013931 
	C741.041321,115.734505 738.615295,114.455070 736.093628,112.809769 
	C736.706177,112.515823 737.414429,112.587746 738.477905,112.610245 
z"/>
<path fill="#12213C" opacity="1.000000" stroke="none" 
	d="
M896.182983,232.624237 
	C894.688293,231.522430 893.313660,230.075439 891.986145,228.284241 
	C893.456543,229.386368 894.879761,230.832718 896.182983,232.624237 
z"/>
<path fill="#12213C" opacity="1.000000" stroke="none" 
	d="
M903.226807,241.621368 
	C901.683594,240.517487 900.304443,239.074310 898.987244,237.286743 
	C900.496338,238.388916 901.943604,239.835495 903.226807,241.621368 
z"/>
<path fill="#12213C" opacity="1.000000" stroke="none" 
	d="
M886.236328,220.642944 
	C884.679016,219.526550 883.291565,218.076248 881.971008,216.284119 
	C883.494019,217.397903 884.950134,218.853470 886.236328,220.642944 
z"/>
<path fill="#000001" opacity="1.000000" stroke="none" 
	d="
M797.393433,923.506470 
	C797.052185,923.351318 797.040710,923.063660 796.990601,922.345947 
	C798.132690,921.069153 799.313538,920.222412 800.786194,919.287048 
	C801.279297,919.372803 801.480591,919.547119 801.971924,919.996338 
	C800.748962,921.305420 799.236084,922.339661 797.393433,923.506470 
z"/>
<path fill="#12213C" opacity="1.000000" stroke="none" 
	d="
M891.223022,226.661407 
	C890.015381,225.873474 888.964417,224.745010 887.977783,223.280334 
	C889.154602,224.069702 890.267151,225.195297 891.223022,226.661407 
z"/>
<path fill="#12213C" opacity="1.000000" stroke="none" 
	d="
M899.268066,236.636536 
	C898.026917,235.849503 896.988708,234.737457 895.994873,233.283768 
	C897.183167,234.065247 898.327026,235.188385 899.268066,236.636536 
z"/>
<path fill="#000001" opacity="1.000000" stroke="none" 
	d="
M943.153076,304.628235 
	C942.144348,303.769135 941.199951,302.560852 940.675293,301.160919 
	C941.802551,302.072571 942.510010,303.175812 943.153076,304.628235 
z"/>
<path fill="#070D18" opacity="1.000000" stroke="none" 
	d="
M905.317383,244.688873 
	C904.364197,244.205414 903.652039,243.407822 902.972839,242.267456 
	C903.856628,242.741379 904.707458,243.558060 905.317383,244.688873 
z"/>
<path fill="#000001" opacity="1.000000" stroke="none" 
	d="
M323.284546,93.344406 
	C322.385345,94.228317 321.256042,94.823151 319.576202,95.194824 
	C318.877563,94.807465 318.729431,94.643272 318.581299,94.479095 
	C319.703857,93.854828 320.826416,93.230560 322.265564,92.546585 
	C322.739563,92.676369 322.896973,92.865852 323.284546,93.344406 
z"/>
<path fill="#12213C" opacity="1.000000" stroke="none" 
	d="
M177.207428,211.441467 
	C177.870163,210.630829 178.532883,209.820190 179.639282,209.048584 
	C180.082977,209.087631 180.381516,209.393890 180.381516,209.393890 
	C179.823914,210.224930 179.266312,211.055969 178.208282,211.839233 
	C177.541061,211.674805 177.374252,211.558136 177.207428,211.441467 
z"/>
<path fill="#000001" opacity="1.000000" stroke="none" 
	d="
M317.284058,96.897568 
	C317.026917,96.587921 317.054199,96.178978 317.067566,95.462814 
	C317.380402,94.973129 317.707184,94.790657 318.307617,94.543640 
	C318.729431,94.643272 318.877563,94.807465 319.253174,95.214172 
	C318.843231,95.903885 318.205841,96.351082 317.284058,96.897568 
z"/>
<path fill="#000001" opacity="1.000000" stroke="none" 
	d="
M755.525146,928.923706 
	C755.540955,929.676758 755.150452,930.405334 754.333984,931.047668 
	C754.311646,930.274048 754.715271,929.586670 755.525146,928.923706 
z"/>
<path fill="#3F68C2" opacity="1.000000" stroke="none" 
	d="
M737.855225,938.415649 
	C738.018127,938.640808 738.035889,938.891479 737.994446,939.131897 
	C737.987000,939.175049 737.735779,939.176086 737.597046,939.196594 
	C737.627991,938.943604 737.658875,938.690552 737.855225,938.415649 
z"/>
<path fill="#000001" opacity="1.000000" stroke="none" 
	d="
M944.405151,307.728455 
	C943.582336,307.186493 943.066223,306.369659 942.807129,305.243805 
	C943.613281,305.774384 944.162537,306.613983 944.405151,307.728455 
z"/>
<path fill="#000001" opacity="1.000000" stroke="none" 
	d="
M38.055984,611.055786 
	C38.078903,610.279358 38.078903,609.482239 38.078903,608.685120 
	C38.269985,608.679321 38.461067,608.673523 38.652149,608.667725 
	C38.652149,609.394653 38.652149,610.121582 38.318470,610.922546 
	C37.984791,610.996582 38.033066,611.035034 38.055984,611.055786 
z"/>
<path fill="#000001" opacity="1.000000" stroke="none" 
	d="
M752.230713,931.544189 
	C751.925293,932.318542 751.301331,932.708374 750.295898,933.042725 
	C750.580322,932.378113 751.246216,931.768860 752.230713,931.544189 
z"/>
<path fill="#000001" opacity="1.000000" stroke="none" 
	d="
M749.683838,932.724854 
	C749.353149,933.155212 748.691711,933.395752 747.961060,933.297058 
	C748.378967,932.816833 748.866028,932.675903 749.683838,932.724854 
z"/>
<path fill="#28447E" opacity="1.000000" stroke="none" 
	d="
M680.306885,87.039490 
	C680.008179,86.801453 680.010498,86.543297 680.025757,85.896194 
	C680.530457,85.788231 681.022095,86.069206 681.513794,86.350174 
	C681.211853,86.573242 680.909851,86.796310 680.306885,87.039490 
z"/>
<path fill="#203866" opacity="1.000000" stroke="none" 
	d="
M977.978760,322.016632 
	C977.710266,321.526031 977.562195,320.934174 977.414062,320.342346 
	C977.663086,320.617859 977.912109,320.893402 978.251831,321.442322 
	C978.342468,321.715698 978.099121,321.915375 977.978760,322.016632 
z"/>
<path fill="#28447E" opacity="1.000000" stroke="none" 
	d="
M748.644836,950.562134 
	C749.207397,950.433289 749.769897,950.304443 750.332520,950.175598 
	C750.149170,950.492859 749.965820,950.810120 749.360413,951.020142 
	C748.938293,950.913025 748.644836,950.562134 748.644836,950.562134 
z"/>
<path fill="#28447E" opacity="1.000000" stroke="none" 
	d="
M746.585510,951.511841 
	C747.089844,951.251648 747.594177,950.991455 748.371704,950.646729 
	C748.644836,950.562134 748.938293,950.913025 749.087952,951.086914 
	C748.775635,951.581177 748.313660,951.901611 747.390747,952.064819 
	C746.815002,951.775696 746.700256,951.643799 746.585510,951.511841 
z"/>
<path fill="#203866" opacity="1.000000" stroke="none" 
	d="
M975.989136,317.034241 
	C976.212585,317.382874 976.436096,317.731476 976.659607,318.080078 
	C976.528259,318.150848 976.396851,318.221649 976.265503,318.292450 
	C976.168823,318.010162 976.072144,317.727844 975.993164,317.223236 
	C976.010925,317.000916 975.989136,317.034241 975.989136,317.034241 
z"/>
<path fill="#203866" opacity="1.000000" stroke="none" 
	d="
M974.115295,313.552307 
	C974.060303,313.594543 973.888367,313.427124 973.888367,313.427124 
	C973.888367,313.427124 974.170288,313.510040 974.115295,313.552307 
z"/>
<path fill="#28447E" opacity="1.000000" stroke="none" 
	d="
M744.760254,952.724854 
	C745.084167,952.259033 745.576233,951.993835 746.326904,951.620239 
	C746.700256,951.643799 746.815002,951.775696 747.102295,952.106201 
	C746.795349,952.603577 746.315796,952.902283 745.554810,953.260254 
	C745.158386,953.188232 745.043396,953.056885 744.760254,952.724854 
z"/>
<path fill="#12213C" opacity="1.000000" stroke="none" 
	d="
M194.648270,192.938171 
	C195.330383,192.460144 196.012497,191.982117 196.694611,191.504089 
	C196.753540,191.881943 196.812454,192.259796 196.150772,192.838547 
	C195.169525,193.005676 194.908905,192.971924 194.648270,192.938171 
z"/>
<path fill="#203866" opacity="1.000000" stroke="none" 
	d="
M194.441971,192.998169 
	C194.908905,192.971924 195.169525,193.005676 195.820496,193.095123 
	C195.817627,193.566116 195.424408,193.981400 194.592026,194.295135 
	C194.013443,194.042542 193.874039,193.891510 193.734619,193.740479 
	C193.818985,193.452347 193.986008,193.224915 194.441971,192.998169 
z"/>
<path fill="#000001" opacity="1.000000" stroke="none" 
	d="
M206.595184,183.885132 
	C205.919083,183.940125 205.629318,183.719986 205.184128,183.275177 
	C205.676666,182.825348 206.324600,182.600204 206.972549,182.375076 
	C206.975540,182.786728 206.978531,183.198380 206.595184,183.885132 
z"/>
<path fill="#203866" opacity="1.000000" stroke="none" 
	d="
M294.255707,109.254440 
	C293.619232,109.394394 292.982758,109.534348 292.346283,109.674301 
	C292.566010,109.369370 292.785736,109.064438 293.452393,108.827415 
	C294.018127,109.015030 294.136902,109.134735 294.255707,109.254440 
z"/>
<path fill="#203866" opacity="1.000000" stroke="none" 
	d="
M181.272522,207.074570 
	C181.570694,206.665421 181.868881,206.256256 182.543854,205.884186 
	C182.920670,205.921280 183.171021,206.161774 183.171021,206.161774 
	C182.966705,206.427628 182.762390,206.693481 182.109436,207.018066 
	C181.660782,207.076813 181.272522,207.074570 181.272522,207.074570 
z"/>
<path fill="#203866" opacity="1.000000" stroke="none" 
	d="
M187.603973,201.544403 
	C187.275406,201.993134 186.946823,202.441864 186.212646,202.848587 
	C185.807068,202.806580 185.488525,202.515076 185.488525,202.515076 
	C185.782257,202.048584 186.075989,201.582092 186.794678,201.165649 
	C187.347748,201.325272 187.475861,201.434830 187.603973,201.544403 
z"/>
<path fill="#0A1221" opacity="1.000000" stroke="none" 
	d="
M872.137329,204.626648 
	C871.707947,204.849258 871.343628,204.709488 871.003174,204.249725 
	C871.418823,204.041245 871.810608,204.152756 872.137329,204.626648 
z"/>
<path fill="#0A1221" opacity="1.000000" stroke="none" 
	d="
M873.111206,205.651855 
	C872.707275,205.852020 872.342041,205.713379 871.993774,205.251205 
	C872.390442,205.056122 872.770264,205.184586 873.111206,205.651855 
z"/>
<path fill="#203866" opacity="1.000000" stroke="none" 
	d="
M185.086060,204.076492 
	C184.922379,204.362991 184.758682,204.649490 184.238342,204.906815 
	C183.881699,204.877640 183.624969,204.609344 183.624969,204.609344 
	C183.694000,204.280975 183.855698,204.007355 184.460922,203.807175 
	C184.811768,203.825851 185.086060,204.076492 185.086060,204.076492 
z"/>
<path fill="#0A1221" opacity="1.000000" stroke="none" 
	d="
M871.192749,203.602997 
	C870.705750,203.838318 870.341125,203.703766 870.002625,203.249603 
	C870.457520,203.031036 870.886414,203.132080 871.192749,203.602997 
z"/>
<path fill="#203866" opacity="1.000000" stroke="none" 
	d="
M185.956970,202.961945 
	C186.013641,203.446335 185.825378,203.706619 185.314056,203.987335 
	C185.086060,204.076492 184.811768,203.825851 184.673920,203.692871 
	C184.687180,203.275955 184.882095,203.026245 185.304688,202.662918 
	C185.488525,202.515076 185.807068,202.806580 185.956970,202.961945 
z"/>
<path fill="#0A1221" opacity="1.000000" stroke="none" 
	d="
M870.322876,202.747711 
	C869.890137,203.045456 869.710205,203.131607 869.231079,203.211548 
	C868.931946,203.205338 868.750000,202.770966 868.685913,202.544403 
	C868.819153,202.173523 869.016418,202.029205 869.522461,201.686035 
	C870.079468,201.836838 870.327637,202.186478 870.322876,202.747711 
z"/>
<path fill="#000001" opacity="1.000000" stroke="none" 
	d="
M753.539795,930.642578 
	C753.707581,931.263062 753.437500,931.616272 752.790649,931.987671 
	C752.643188,931.462341 752.872620,930.918823 753.539795,930.642578 
z"/>
<path fill="#203866" opacity="1.000000" stroke="none" 
	d="
M187.041855,201.035919 
	C186.936935,200.523483 187.107849,200.252777 187.790894,200.117661 
	C188.350067,200.314926 188.495178,200.438522 188.640305,200.562134 
	C188.466309,200.837357 188.249237,201.072876 187.796539,201.406525 
	C187.475861,201.434830 187.347748,201.325272 187.041855,201.035919 
z"/>
<path fill="#203866" opacity="1.000000" stroke="none" 
	d="
M189.655441,199.537369 
	C189.505081,199.833267 189.298828,200.082977 188.838501,200.424332 
	C188.495178,200.438522 188.350067,200.314926 188.000000,199.991882 
	C187.858704,199.445297 188.036087,199.171997 188.767670,199.074036 
	C189.357239,199.296158 189.506348,199.416763 189.655441,199.537369 
z"/>
<path fill="#203866" opacity="1.000000" stroke="none" 
	d="
M188.998352,198.978699 
	C188.898834,198.470337 189.073975,198.201004 189.743103,198.062744 
	C190.325867,198.281296 190.479523,198.410995 190.633179,198.540695 
	C190.480637,198.821365 190.278580,199.060120 189.841232,199.397156 
	C189.506348,199.416763 189.357239,199.296158 188.998352,198.978699 
z"/>
<path fill="#203866" opacity="1.000000" stroke="none" 
	d="
M189.954254,197.943054 
	C189.841690,197.412262 190.031418,197.151337 190.739105,197.052826 
	C191.321442,197.280746 191.470154,197.407578 191.618866,197.534424 
	C191.472214,197.823303 191.270538,198.066528 190.823517,198.402405 
	C190.479523,198.410995 190.325867,198.281296 189.954254,197.943054 
z"/>
<path fill="#203866" opacity="1.000000" stroke="none" 
	d="
M190.961761,196.950287 
	C190.866699,196.434433 191.057022,196.177307 191.757233,196.071228 
	C192.350571,196.294571 192.508438,196.421921 192.666321,196.549271 
	C192.501602,196.835602 192.282791,197.071777 191.814392,197.396118 
	C191.470154,197.407578 191.321442,197.280746 190.961761,196.950287 
z"/>
<path fill="#203866" opacity="1.000000" stroke="none" 
	d="
M193.673859,195.539062 
	C193.531555,195.838074 193.326065,196.084290 192.861847,196.413498 
	C192.508438,196.421921 192.350571,196.294571 191.971542,195.957825 
	C191.849426,195.425034 192.034317,195.161911 192.747406,195.058167 
	C193.351151,195.284500 193.512512,195.411789 193.673859,195.539062 
z"/>
<path fill="#203866" opacity="1.000000" stroke="none" 
	d="
M194.341095,194.437775 
	C194.389145,194.919205 194.213531,195.126373 193.838165,195.421280 
	C193.512512,195.411789 193.351151,195.284500 192.964676,194.946228 
	C192.848114,194.419373 193.036591,194.162094 193.519836,193.851929 
	C193.874039,193.891510 194.013443,194.042542 194.341095,194.437775 
z"/>
<path fill="#12213C" opacity="1.000000" stroke="none" 
	d="
M450.307678,59.921307 
	C450.353699,59.717216 450.708191,59.528309 451.371796,59.353073 
	C451.326019,59.556656 450.971100,59.746571 450.307678,59.921307 
z"/>
<path fill="#203866" opacity="1.000000" stroke="none" 
	d="
M602.422852,998.460327 
	C602.502258,998.404419 602.526978,998.623901 602.526978,998.623901 
	C602.526978,998.623901 602.343506,998.516235 602.422852,998.460327 
z"/>
<path fill="#12213C" opacity="1.000000" stroke="none" 
	d="
M882.102539,215.635742 
	C881.704834,215.835007 881.350403,215.703674 881.013672,215.255859 
	C881.402893,215.061295 881.774353,215.183228 882.102539,215.635742 
z"/>
<path fill="#203866" opacity="1.000000" stroke="none" 
	d="
M293.724915,108.712074 
	C293.929504,108.338409 294.308502,108.147995 294.687469,107.957581 
	C294.745575,108.298973 294.803711,108.640366 294.558777,109.118103 
	C294.136902,109.134735 294.018127,109.015030 293.724915,108.712074 
z"/>
<path fill="#203866" opacity="1.000000" stroke="none" 
	d="
M971.483459,308.540894 
	C971.463684,308.498260 971.503235,308.583557 971.483459,308.540894 
z"/>
<path fill="#203866" opacity="1.000000" stroke="none" 
	d="
M972.522400,310.484680 
	C972.510559,310.506378 972.534241,310.462982 972.522400,310.484680 
z"/>
<path fill="#203866" opacity="1.000000" stroke="none" 
	d="
M976.027161,316.989075 
	C976.043396,316.977234 975.647278,316.815338 975.647278,316.815338 
	C975.647278,316.815338 975.887024,316.834412 975.938110,316.934326 
	C975.989136,317.034241 976.010925,317.000916 976.027161,316.989075 
z"/>
<path fill="#070D18" opacity="1.000000" stroke="none" 
	d="
M906.170654,245.608002 
	C905.721619,245.843964 905.368958,245.703735 905.010742,245.243942 
	C905.425842,245.026855 905.846375,245.129349 906.170654,245.608002 
z"/>
<path fill="#12213C" opacity="1.000000" stroke="none" 
	d="
M892.112671,227.622360 
	C891.711792,227.832275 891.362671,227.694260 891.012756,227.245300 
	C891.396118,227.047714 891.780273,227.161087 892.112671,227.622360 
z"/>
<path fill="#12213C" opacity="1.000000" stroke="none" 
	d="
M888.117126,222.619873 
	C887.712646,222.828964 887.367004,222.695450 887.028503,222.250885 
	C887.415771,222.052292 887.795837,222.164764 888.117126,222.619873 
z"/>
<path fill="#12213C" opacity="1.000000" stroke="none" 
	d="
M887.155884,221.612595 
	C886.714233,221.825256 886.368164,221.685867 886.026733,221.242386 
	C886.438110,221.045715 886.844727,221.153137 887.155884,221.612595 
z"/>
<path fill="#203866" opacity="1.000000" stroke="none" 
	d="
M182.794861,205.801697 
	C182.786133,205.369415 182.970383,205.103210 183.423370,204.746429 
	C183.624969,204.609344 183.881699,204.877640 184.010223,205.012421 
	C184.069687,205.485077 183.896866,205.757034 183.395660,206.062408 
	C183.171021,206.161774 182.920670,205.921280 182.794861,205.801697 
z"/>
<path fill="#12213C" opacity="1.000000" stroke="none" 
	d="
M881.127136,214.613892 
	C880.718872,214.829636 880.377014,214.690506 880.036255,214.245361 
	C880.422729,214.045898 880.808105,214.152451 881.127136,214.613892 
z"/>
<path fill="#12213C" opacity="1.000000" stroke="none" 
	d="
M880.180725,213.600708 
	C879.719299,213.821564 879.377991,213.680405 879.036926,213.239273 
	C879.458374,213.039108 879.879639,213.138916 880.180725,213.600708 
z"/>
<path fill="#12213C" opacity="1.000000" stroke="none" 
	d="
M177.942963,211.986328 
	C178.019394,212.471024 177.860748,212.760880 177.465881,213.141357 
	C177.096283,213.090622 176.962891,212.949234 176.636383,212.588287 
	C176.539459,212.108795 176.686813,211.882141 177.046387,211.565109 
	C177.374252,211.558136 177.541061,211.674805 177.942963,211.986328 
z"/>
<path fill="#12213C" opacity="1.000000" stroke="none" 
	d="
M180.998367,207.998596 
	C180.943802,208.350189 180.889236,208.701797 180.608093,209.223633 
	C180.381516,209.393890 180.082977,209.087631 179.933609,208.934311 
	C180.008331,208.506561 180.232422,208.232117 180.728241,207.978836 
	C181.000000,208.000000 180.998367,207.998596 180.998367,207.998596 
z"/>
<path fill="#12213C" opacity="1.000000" stroke="none" 
	d="
M181.136002,207.286163 
	C181.272522,207.074570 181.660782,207.076813 181.852219,207.041443 
	C181.878601,207.320709 181.713547,207.635315 181.273438,207.974274 
	C180.998367,207.998596 181.000000,208.000000 181.000702,208.000687 
	C181.000748,207.833496 181.000107,207.665619 181.136002,207.286163 
z"/>
<path fill="#2E4F8F" opacity="1.000000" stroke="none" 
	d="
M701.985352,96.002617 
	C701.971680,96.010750 702.239197,96.190109 702.239197,96.190109 
	C702.239197,96.190109 702.084351,96.130775 702.051025,96.049393 
	C702.017761,95.968010 701.999084,95.994484 701.985352,96.002617 
z"/>
<path fill="#000001" opacity="1.000000" stroke="none" 
	d="
M805.969910,896.951904 
	C806.969299,895.731201 808.270142,894.812317 809.570923,893.893494 
	C809.857056,894.255493 810.143188,894.617554 810.429321,894.979553 
	C809.482483,895.850220 808.535645,896.720825 807.251404,897.703125 
	C806.699768,897.627747 806.485535,897.440735 805.969910,896.951904 
z"/>
<path fill="#5082F2" opacity="1.000000" stroke="none" 
	d="
M508.106781,53.280571 
	C508.875275,52.832573 509.540649,52.616566 510.206055,52.400562 
	C510.272369,52.771229 510.338684,53.141895 510.404999,53.512562 
	C509.604553,53.512562 508.804138,53.512562 508.106781,53.280571 
z"/>
<path fill="#5082F2" opacity="1.000000" stroke="none" 
	d="
M500.744934,54.919991 
	C500.254181,54.841660 500.009827,54.711647 499.765503,54.581631 
	C500.070984,54.400566 500.376434,54.219498 500.681915,54.038429 
	C500.785034,54.315052 500.888184,54.591679 500.744934,54.919991 
z"/>
</svg>